<?xml version="1.0" encoding="UTF-8"?>
<svg id="Layer_2" xmlns="http://www.w3.org/2000/svg" version="1.1" viewBox="0 0 2500 1400">
  <!-- Generator: Adobe Illustrator 30.1.0, SVG Export Plug-In . SVG Version: 2.1.1 Build 136)  -->
  <defs>
    <style>
      .st0 {
        fill: #ba752a;
      }

      .st1 {
        fill: #450594;
      }
    </style>
  </defs>
  <g>
    <path class="st0" d="M826.75,1011.11h-.14c-.03-.79-.33-1.46-.88-2.02-.56-.56-1.23-.84-2.02-.84h-.59v-.45h3.63v3.31ZM826.75,1036.24v3.31h-3.63v-.45h.59c.79,0,1.46-.28,2.02-.84.56-.56.85-1.23.88-2.02h.14ZM830.83,1007.8v31.75h-4.22v-31.75h4.22ZM848.52,1023.04v1.54h-18.14v-1.54h18.14ZM830.69,1011.11v-3.31h3.63v.45h-.59c-.79,0-1.46.28-2.02.84-.56.56-.85,1.23-.88,2.02h-.14ZM830.69,1036.24h.14c.03.79.32,1.46.88,2.02.56.56,1.23.84,2.02.84h.59v.45h-3.63v-3.31ZM848.25,1011.11h-.14c0-.79-.29-1.46-.86-2.02-.58-.56-1.26-.84-2.04-.84h-.59v-.45h3.63v3.31ZM848.25,1036.24v3.31h-3.63v-.45h.59c.79,0,1.47-.28,2.04-.84.57-.56.86-1.23.86-2.02h.14ZM852.33,1007.8v31.75h-4.22v-31.75h4.22ZM852.2,1011.11v-3.31h3.63v.45h-.59c-.79,0-1.46.28-2.02.84s-.85,1.23-.88,2.02h-.14ZM852.2,1036.24h.14c.03.79.32,1.46.88,2.02.56.56,1.23.84,2.02.84h.59v.45h-3.63v-3.31Z"/>
    <path class="st0" d="M873.42,1011.11h-.14c0-.79-.29-1.46-.86-2.02-.58-.56-1.26-.84-2.04-.84h-.54l-.05-.45h3.63v3.31ZM873.42,1036.24v3.31h-3.63v-.45h.59c.79,0,1.46-.28,2.02-.84.56-.56.85-1.23.88-2.02h.14ZM877.51,1007.8v31.75h-4.22v-31.75h4.22ZM889.84,1007.8v1.59h-12.47v-1.59h12.47ZM887.8,1023.13v1.54h-10.43v-1.54h10.43ZM889.66,1037.97l.36,1.59h-12.66v-1.59h12.29ZM892.61,1031.57l-2.45,7.98h-7.98l1.63-1.59c1.57,0,2.89-.26,3.95-.79,1.06-.53,1.93-1.28,2.63-2.25.7-.97,1.29-2.09,1.77-3.36h.45ZM889.84,1006.99v1.31l-5.53-.5c.66,0,1.37-.05,2.11-.14.74-.09,1.43-.2,2.06-.32.64-.12,1.09-.24,1.36-.36ZM887.8,1019.78v3.45h-3.18v-.09c.79-.03,1.44-.32,1.95-.86.51-.54.77-1.19.77-1.95v-.54h.45ZM887.8,1024.58v3.45h-.45v-.59c0-.76-.26-1.41-.77-1.95-.51-.54-1.16-.82-1.95-.82v-.09h3.18ZM889.84,1009.25v4.17h-.45v-.73c0-.94-.31-1.72-.93-2.36s-1.41-.97-2.38-1v-.09h3.76Z"/>
    <path class="st0" d="M909.85,1036.24c-.21.6-.24,1.12-.09,1.54.15.42.4.75.75.98s.7.34,1.07.34h.41v.45h-9.3v-.45h.41c.7,0,1.41-.22,2.15-.66.74-.44,1.35-1.17,1.84-2.2h2.77ZM919.6,1007.08l.36,3.95-11.34,28.4h-2.95l11.66-27.26c.03-.06.14-.29.34-.7.2-.41.41-.9.64-1.47s.43-1.13.61-1.68c.18-.54.27-.95.27-1.22h.41ZM925.45,1027.71v1.54h-13.88v-1.54h13.88ZM919.6,1007.08l13.93,32.21h-5.31l-10.12-26.4,1.5-5.81ZM927.04,1036.24h5.13c.48,1.03,1.1,1.76,1.84,2.2.74.44,1.46.66,2.15.66h.36v.45h-11.61v-.45h.41c.6,0,1.13-.25,1.59-.75s.5-1.2.14-2.11Z"/>
    <path class="st0" d="M950.94,1011.11h-.14c-.03-.79-.33-1.46-.88-2.02-.56-.56-1.23-.84-2.02-.84h-.59v-.45h3.63v3.31ZM950.94,1036.24v3.31h-3.63v-.45h.59c.79,0,1.46-.28,2.02-.84.56-.56.85-1.23.88-2.02h.14ZM955.02,1007.8v31.75h-4.22v-31.75h4.22ZM954.89,1011.11v-3.31h3.63v.45h-.59c-.79,0-1.46.28-2.02.84-.56.56-.85,1.23-.88,2.02h-.14ZM967.18,1037.97l.36,1.59h-12.66v-1.59h12.29ZM970.13,1031.57l-2.45,7.98h-7.98l1.63-1.59c1.57,0,2.89-.26,3.95-.79,1.06-.53,1.93-1.28,2.63-2.25.7-.97,1.29-2.09,1.77-3.36h.45Z"/>
    <path class="st0" d="M976.43,1006.94c.3.12.76.24,1.38.36.62.12,1.31.23,2.06.32.76.09,1.45.14,2.09.14l-5.53.5v-1.32ZM1003.6,1007.76v1.54h-27.17v-1.54h27.17ZM980.2,1009.16v.14c-.97.03-1.76.36-2.38.97-.62.62-.93,1.41-.93,2.38v.68l-.45.05v-4.22h3.76ZM988.05,1036.24v3.31h-3.63v-.45h.59c.79,0,1.46-.28,2.02-.84.56-.56.85-1.23.88-2.02h.14ZM992.13,1007.94v31.62h-4.22v-31.62h4.22ZM991.99,1036.24h.14c.03.79.32,1.46.88,2.02.56.56,1.23.84,2.02.84h.59v.45h-3.63v-3.31ZM1003.6,1006.94v1.32l-5.53-.5c.66,0,1.37-.05,2.11-.14.74-.09,1.43-.2,2.06-.32.63-.12,1.09-.24,1.36-.36ZM1003.6,1009.16v4.22l-.45-.05v-.68c0-.97-.31-1.76-.93-2.38-.62-.62-1.41-.94-2.38-.97v-.14h3.77Z"/>
    <path class="st0" d="M1019.53,1011.11h-.14c-.03-.79-.33-1.46-.88-2.02-.56-.56-1.23-.84-2.02-.84h-.59v-.45h3.63v3.31ZM1019.53,1036.24v3.31h-3.63v-.45h.59c.79,0,1.46-.28,2.02-.84.56-.56.85-1.23.88-2.02h.14ZM1023.61,1007.8v31.75h-4.22v-31.75h4.22ZM1041.3,1023.04v1.54h-18.14v-1.54h18.14ZM1023.47,1011.11v-3.31h3.63v.45h-.59c-.79,0-1.46.28-2.02.84-.56.56-.85,1.23-.88,2.02h-.14ZM1023.47,1036.24h.14c.03.79.32,1.46.88,2.02.56.56,1.23.84,2.02.84h.59v.45h-3.63v-3.31ZM1041.03,1011.11h-.14c0-.79-.29-1.46-.86-2.02-.58-.56-1.26-.84-2.04-.84h-.59v-.45h3.63v3.31ZM1041.03,1036.24v3.31h-3.63v-.45h.59c.79,0,1.47-.28,2.04-.84.57-.56.86-1.23.86-2.02h.14ZM1045.11,1007.8v31.75h-4.22v-31.75h4.22ZM1044.97,1011.11v-3.31h3.63v.45h-.59c-.79,0-1.46.28-2.02.84s-.85,1.23-.88,2.02h-.14ZM1044.97,1036.24h.14c.03.79.32,1.46.88,2.02.56.56,1.23.84,2.02.84h.59v.45h-3.63v-3.31Z"/>
    <path class="st0" d="M1086.98,1036.24c-.21.6-.24,1.12-.09,1.54.15.42.4.75.75.98s.7.34,1.07.34h.41v.45h-9.3v-.45h.41c.7,0,1.41-.22,2.15-.66.74-.44,1.35-1.17,1.84-2.2h2.77ZM1096.73,1007.08l.36,3.95-11.34,28.4h-2.95l11.66-27.26c.03-.06.14-.29.34-.7.2-.41.41-.9.64-1.47s.43-1.13.61-1.68c.18-.54.27-.95.27-1.22h.41ZM1102.58,1027.71v1.54h-13.88v-1.54h13.88ZM1096.73,1007.08l13.93,32.21h-5.31l-10.12-26.4,1.5-5.81ZM1104.17,1036.24h5.13c.48,1.03,1.1,1.76,1.84,2.2.74.44,1.46.66,2.15.66h.36v.45h-11.61v-.45h.41c.6,0,1.13-.25,1.59-.75s.5-1.2.14-2.11Z"/>
    <path class="st0" d="M1127.57,1036.33v3.22h-3.76v-.45h.86c.76,0,1.41-.27,1.95-.82.54-.54.82-1.19.82-1.95h.14ZM1127.44,1007.12l3.49,3.99.05,28.44h-3.54v-26.76c0-1.6-.15-3.49-.45-5.67h.45ZM1127.44,1007.12l27.22,27.94.45,5.13-27.22-27.9-.45-5.17ZM1130.97,1036.33c0,.76.27,1.41.82,1.95.54.54,1.19.82,1.95.82h.86v.45h-3.76v-3.22h.14ZM1147.89,1007.8h3.76v3.22h-.09c-.03-.79-.31-1.44-.84-1.97-.53-.53-1.19-.79-1.97-.79h-.86v-.45ZM1155.06,1007.8v26.58c0,1.03.04,1.99.11,2.88s.19,1.87.34,2.93h-.41l-3.54-4.04v-28.35h3.49ZM1158.69,1007.8v.45h-.82c-.76,0-1.41.27-1.95.79-.54.53-.83,1.19-.86,1.97h-.14v-3.22h3.76Z"/>
    <path class="st0" d="M1175.11,1011.11h-.14c0-.79-.29-1.46-.86-2.02-.58-.56-1.26-.84-2.04-.84h-.54l-.05-.45h3.63v3.31ZM1175.11,1036.24v3.31h-3.63v-.45h.59c.79,0,1.46-.28,2.02-.84.56-.56.85-1.23.88-2.02h.14ZM1179.19,1007.8v31.75h-4.22v-31.75h4.22ZM1187.22,1007.8c3.36,0,6.27.65,8.75,1.95,2.48,1.3,4.41,3.15,5.81,5.53,1.39,2.39,2.09,5.19,2.09,8.39s-.7,6-2.09,8.37c-1.39,2.37-3.33,4.22-5.81,5.53-2.48,1.32-5.4,1.97-8.75,1.97h-10.07l-.05-1.54h9.93c2.45,0,4.58-.59,6.4-1.77,1.81-1.18,3.22-2.84,4.22-4.99,1-2.15,1.5-4.67,1.5-7.57s-.5-5.43-1.5-7.58c-1-2.15-2.4-3.81-4.22-4.99-1.81-1.18-3.95-1.77-6.4-1.77h-10.39v-1.54h10.57Z"/>
    <path class="st0" d="M1241.93,1011.11h-.14c0-.79-.29-1.46-.86-2.02-.58-.56-1.26-.84-2.04-.84h-.55l-.04-.45h3.63v3.31ZM1241.93,1036.24v3.31h-3.63v-.45h.59c.79,0,1.46-.28,2.02-.84.56-.56.85-1.23.88-2.02h.14ZM1246.01,1007.8v31.75h-4.22v-31.75h4.22ZM1251.22,1007.8c2.18,0,4,.36,5.47,1.07,1.47.71,2.59,1.72,3.36,3.04.77,1.32,1.16,2.87,1.16,4.65.03,1.42-.23,2.71-.79,3.88-.56,1.16-1.31,2.14-2.25,2.93-.94.79-2,1.37-3.2,1.75-1.19.38-2.43.51-3.7.39-1.27-.12-2.51-.53-3.72-1.22v-.45c.94.09,1.78.11,2.52.05.74-.06,1.51-.24,2.31-.54.8-.3,1.56-.82,2.27-1.54.71-.73,1.25-1.71,1.61-2.95.09-.36.16-.79.23-1.29.06-.5.07-.98.04-1.43-.03-2.03-.57-3.66-1.61-4.9-1.04-1.24-2.52-1.86-4.42-1.86h-4.63c-.15-.51-.3-1.03-.45-1.54h5.81ZM1245.87,1036.24h.14c.03.79.33,1.46.89,2.02.56.56,1.23.84,2.02.84h.59v.45h-3.63v-3.31Z"/>
    <path class="st0" d="M1278.12,1011.11h-.14c0-.79-.29-1.46-.86-2.02-.58-.56-1.26-.84-2.04-.84h-.54l-.05-.45h3.63v3.31ZM1278.12,1036.24v3.31h-3.63v-.45h.59c.79,0,1.46-.28,2.02-.84.56-.56.85-1.23.88-2.02h.14ZM1282.2,1007.8v31.75h-4.22v-31.75h4.22ZM1294.54,1007.8v1.59h-12.47v-1.59h12.47ZM1292.5,1023.13v1.54h-10.43v-1.54h10.43ZM1294.36,1037.97l.36,1.59h-12.66v-1.59h12.29ZM1297.31,1031.57l-2.45,7.98h-7.98l1.63-1.59c1.57,0,2.89-.26,3.95-.79,1.06-.53,1.93-1.28,2.63-2.25.7-.97,1.28-2.09,1.77-3.36h.45ZM1294.54,1006.99v1.31l-5.53-.5c.66,0,1.37-.05,2.11-.14.74-.09,1.43-.2,2.06-.32.63-.12,1.09-.24,1.36-.36ZM1292.5,1019.78v3.45h-3.18v-.09c.79-.03,1.44-.32,1.95-.86.51-.54.77-1.19.77-1.95v-.54h.45ZM1292.5,1024.58v3.45h-.45v-.59c0-.76-.26-1.41-.77-1.95-.51-.54-1.16-.82-1.95-.82v-.09h3.18ZM1294.54,1009.25v4.17h-.45v-.73c0-.94-.31-1.72-.93-2.36-.62-.64-1.41-.97-2.38-1v-.09h3.76Z"/>
    <path class="st0" d="M1313.86,1011.11h-.14c-.03-.79-.33-1.46-.88-2.02-.56-.56-1.23-.84-2.02-.84h-.59v-.45h3.63v3.31ZM1313.86,1036.24v3.31h-3.63v-.45h.59c.79,0,1.46-.28,2.02-.84.56-.56.85-1.23.88-2.02h.14ZM1317.95,1007.8v31.75h-4.22v-31.75h4.22ZM1323.57,1007.8c1.36,0,2.63.18,3.81.54,1.18.36,2.18.9,3.02,1.61.83.71,1.49,1.6,1.97,2.65.48,1.06.72,2.3.72,3.72s-.32,2.74-.95,4.06c-.64,1.32-1.52,2.4-2.65,3.24-1.13.85-2.47,1.3-4.01,1.36.66.24,1.33.71,2,1.41.66.7,1.24,1.38,1.72,2.04,0,.03.19.32.57.86.38.54.85,1.22,1.43,2.02.57.8,1.16,1.6,1.75,2.38.59.79,1.11,1.44,1.56,1.95.6.73,1.2,1.34,1.79,1.84.59.5,1.22.89,1.9,1.18s1.44.43,2.29.43v.45h-3.18c-1.45,0-2.74-.19-3.86-.57-1.12-.38-2.09-.89-2.9-1.54-.82-.65-1.51-1.35-2.09-2.11-.12-.21-.37-.6-.75-1.18-.38-.57-.8-1.23-1.27-1.97-.47-.74-.93-1.47-1.38-2.2s-.85-1.35-1.18-1.88c-.33-.53-.54-.87-.64-1.02-.51-.82-1.09-1.52-1.72-2.11-.64-.59-1.33-.9-2.09-.93v-.45s.25,0,.66.02c.41.02.89,0,1.43-.02.79-.03,1.62-.17,2.52-.41.89-.24,1.71-.71,2.45-1.41.74-.7,1.29-1.72,1.66-3.08.09-.3.16-.68.2-1.13.05-.45.05-.92.02-1.41-.03-2.09-.55-3.71-1.56-4.88-1.01-1.16-2.34-1.78-3.97-1.84-.7-.06-1.42-.08-2.18-.07-.76.02-1.41.02-1.95.02h-.91s-.04-.17-.11-.43c-.08-.26-.19-.64-.34-1.16h6.21ZM1317.81,1036.24h.14c0,.79.29,1.46.86,2.02.57.56,1.25.84,2.04.84h.54v.45h-3.58v-3.31Z"/>
    <path class="st0" d="M1353.55,1011.11h-.14c0-.79-.29-1.46-.86-2.02-.58-.56-1.26-.84-2.04-.84h-.54l-.05-.45h3.63v3.31ZM1353.55,1036.24v3.31h-3.63v-.45h.59c.79,0,1.46-.28,2.02-.84.56-.56.85-1.23.88-2.02h.14ZM1357.64,1007.8v31.75h-4.22v-31.75h4.22ZM1369.97,1007.8v1.59h-12.47v-1.59h12.47ZM1367.93,1023.13v1.54h-10.43v-1.54h10.43ZM1357.5,1036.24h.14c.03.79.32,1.46.88,2.02.56.56,1.23.84,2.02.84h.59v.45h-3.63v-3.31ZM1369.97,1006.99v1.31l-5.53-.5c.66,0,1.37-.05,2.11-.14.74-.09,1.43-.2,2.06-.32.63-.12,1.09-.24,1.36-.36ZM1367.93,1019.78v3.45h-3.18v-.09c.79-.03,1.44-.32,1.95-.86.51-.54.77-1.19.77-1.95v-.54h.45ZM1367.93,1024.58v3.45h-.45v-.59c0-.76-.26-1.41-.77-1.95-.51-.54-1.16-.82-1.95-.82v-.09h3.18ZM1369.97,1009.25v3.72h-.45v-.63c0-.85-.28-1.55-.84-2.11-.56-.56-1.26-.84-2.11-.84v-.14h3.4Z"/>
    <path class="st0" d="M1400.82,1007.17c3.39,0,6.34.68,8.87,2.04s4.49,3.28,5.9,5.76c1.41,2.48,2.11,5.38,2.11,8.71s-.7,6.23-2.11,8.71c-1.41,2.48-3.37,4.4-5.9,5.76-2.52,1.36-5.48,2.04-8.87,2.04s-6.25-.68-8.78-2.04c-2.53-1.36-4.49-3.28-5.9-5.76-1.41-2.48-2.11-5.38-2.11-8.71s.7-6.23,2.11-8.71c1.41-2.48,3.37-4.4,5.9-5.76,2.52-1.36,5.45-2.04,8.78-2.04ZM1400.82,1038.65c2.45,0,4.57-.62,6.35-1.86,1.78-1.24,3.17-2.98,4.17-5.22,1-2.24,1.5-4.87,1.5-7.89s-.5-5.65-1.5-7.89c-1-2.24-2.39-3.98-4.17-5.22-1.78-1.24-3.9-1.86-6.35-1.86s-4.48.62-6.28,1.86c-1.8,1.24-3.2,2.98-4.2,5.22-1,2.24-1.5,4.87-1.5,7.89s.5,5.65,1.5,7.89c1,2.24,2.4,3.98,4.2,5.22,1.8,1.24,3.89,1.86,6.28,1.86Z"/>
    <path class="st0" d="M1434.11,1011.11h-.14c-.03-.79-.33-1.46-.88-2.02-.56-.56-1.23-.84-2.02-.84h-.59v-.45h3.63v3.31ZM1434.11,1036.24v3.31h-3.63v-.45h.59c.79,0,1.46-.28,2.02-.84.56-.56.85-1.23.88-2.02h.14ZM1438.2,1007.8v31.75h-4.22v-31.75h4.22ZM1443.82,1007.8c1.36,0,2.63.18,3.81.54,1.18.36,2.18.9,3.02,1.61.83.71,1.49,1.6,1.97,2.65.48,1.06.72,2.3.72,3.72s-.32,2.74-.95,4.06c-.64,1.32-1.52,2.4-2.65,3.24-1.13.85-2.47,1.3-4.01,1.36.66.24,1.33.71,2,1.41.66.7,1.24,1.38,1.72,2.04,0,.03.19.32.57.86.38.54.85,1.22,1.43,2.02.57.8,1.16,1.6,1.75,2.38.59.79,1.11,1.44,1.56,1.95.6.73,1.2,1.34,1.79,1.84.59.5,1.22.89,1.9,1.18s1.44.43,2.29.43v.45h-3.18c-1.45,0-2.74-.19-3.86-.57-1.12-.38-2.09-.89-2.9-1.54-.82-.65-1.51-1.35-2.09-2.11-.12-.21-.37-.6-.75-1.18-.38-.57-.8-1.23-1.27-1.97-.47-.74-.93-1.47-1.38-2.2s-.85-1.35-1.18-1.88c-.33-.53-.54-.87-.64-1.02-.51-.82-1.09-1.52-1.72-2.11-.64-.59-1.33-.9-2.09-.93v-.45s.25,0,.66.02c.41.02.89,0,1.43-.02.79-.03,1.62-.17,2.52-.41.89-.24,1.71-.71,2.45-1.41.74-.7,1.29-1.72,1.66-3.08.09-.3.16-.68.2-1.13.05-.45.05-.92.02-1.41-.03-2.09-.55-3.71-1.56-4.88-1.01-1.16-2.34-1.78-3.97-1.84-.7-.06-1.42-.08-2.18-.07-.76.02-1.41.02-1.95.02h-.91s-.04-.17-.11-.43c-.08-.26-.19-.64-.34-1.16h6.21ZM1438.06,1036.24h.14c0,.79.29,1.46.86,2.02.57.56,1.25.84,2.04.84h.54v.45h-3.58v-3.31Z"/>
    <path class="st0" d="M1473.35,1036.24v3.31h-5.04v-.45h.73c.82,0,1.54-.25,2.18-.75.64-.5,1.01-1.2,1.13-2.11h1ZM1475.89,1007.17h.41l1.13,3.31-2.77,29.08h-2.72l3.95-32.39ZM1474.89,1036.97v.23c0,.48.17.93.52,1.34.35.41.76.61,1.25.61h.68v.41h-2.77v-2.59h.32ZM1476.3,1007.17l13.65,26.94-1.54,6.17-13.06-26.13.95-6.99ZM1502.2,1007.17l.36,3.67-12.07,24.68c-.51,1.06-.9,1.95-1.16,2.68-.26.73-.42,1.42-.48,2.09h-.45l-1-3.22,14.79-29.89ZM1501.61,1036.97h.32v2.59h-2.77v-.41h.68c.51,0,.94-.2,1.27-.61.33-.41.5-.85.5-1.34v-.23ZM1502.61,1007.17l4.04,32.39h-4.81l-2.4-25.27,2.77-7.12h.41ZM1505.28,1036.24h.95c.15.91.54,1.61,1.18,2.11.64.5,1.35.75,2.13.75h.72v.45h-4.99v-3.31Z"/>
    <path class="st0" d="M1526.06,1036.24c-.21.6-.24,1.12-.09,1.54.15.42.4.75.75.98.35.23.7.34,1.07.34h.41v.45h-9.3v-.45h.41c.7,0,1.41-.22,2.15-.66.74-.44,1.35-1.17,1.84-2.2h2.77ZM1535.81,1007.08l.36,3.95-11.34,28.4h-2.95l11.66-27.26c.03-.06.14-.29.34-.7.2-.41.41-.9.64-1.47.23-.57.43-1.13.61-1.68.18-.54.27-.95.27-1.22h.41ZM1541.66,1027.71v1.54h-13.88v-1.54h13.88ZM1535.81,1007.08l13.93,32.21h-5.31l-10.11-26.4,1.5-5.81ZM1543.25,1036.24h5.13c.48,1.03,1.1,1.76,1.84,2.2.74.44,1.46.66,2.15.66h.36v.45h-11.61v-.45h.41c.6,0,1.13-.25,1.59-.75s.5-1.2.14-2.11Z"/>
    <path class="st0" d="M1566.66,1036.33v3.22h-3.77v-.45h.86c.76,0,1.41-.27,1.95-.82.54-.54.82-1.19.82-1.95h.14ZM1566.52,1007.12l3.49,3.99.04,28.44h-3.54v-26.76c0-1.6-.15-3.49-.45-5.67h.45ZM1566.52,1007.12l27.22,27.94.45,5.13-27.22-27.9-.45-5.17ZM1570.06,1036.33c0,.76.27,1.41.82,1.95.54.54,1.19.82,1.95.82h.86v.45h-3.76v-3.22h.14ZM1586.98,1007.8h3.77v3.22h-.09c-.03-.79-.31-1.44-.84-1.97-.53-.53-1.19-.79-1.97-.79h-.86v-.45ZM1594.14,1007.8v26.58c0,1.03.04,1.99.11,2.88.07.89.19,1.87.34,2.93h-.41l-3.54-4.04v-28.35h3.49ZM1597.77,1007.8v.45h-.82c-.76,0-1.41.27-1.95.79-.54.53-.83,1.19-.86,1.97h-.14v-3.22h3.77Z"/>
    <path class="st0" d="M1640.18,1026.31l-.23,7.35c-.76,1.24-1.72,2.35-2.88,3.33-1.16.98-2.56,1.76-4.19,2.34-1.63.57-3.52.86-5.67.86-3.33-.03-6.27-.72-8.82-2.06-2.56-1.34-4.54-3.25-5.96-5.71-1.42-2.46-2.13-5.39-2.13-8.78s.7-6.22,2.11-8.69c1.41-2.46,3.39-4.38,5.94-5.74s5.59-2.04,9.1-2.04c2.3,0,4.37.28,6.21.84,1.84.56,3.42,1.25,4.72,2.06l.63,6.85h-.41c-.73-2.78-2.08-4.85-4.06-6.19-1.98-1.34-4.29-2.02-6.92-2.02s-4.84.61-6.71,1.84c-1.88,1.23-3.33,2.95-4.36,5.17-1.03,2.22-1.54,4.85-1.54,7.87s.51,5.61,1.52,7.85c1.01,2.24,2.43,3.98,4.26,5.24,1.83,1.26,3.97,1.91,6.42,1.97,2.21,0,4.19-.39,5.94-1.18,1.75-.79,3.21-2.08,4.36-3.88,1.15-1.8,1.92-4.23,2.31-7.28h.36Z"/>
    <path class="st0" d="M1657.69,1011.11h-.14c0-.79-.29-1.46-.86-2.02-.58-.56-1.26-.84-2.04-.84h-.54l-.05-.45h3.63v3.31ZM1657.69,1036.24v3.31h-3.63v-.45h.59c.79,0,1.46-.28,2.02-.84.56-.56.85-1.23.88-2.02h.14ZM1661.78,1007.8v31.75h-4.22v-31.75h4.22ZM1674.11,1007.8v1.59h-12.47v-1.59h12.47ZM1672.07,1023.13v1.54h-10.43v-1.54h10.43ZM1673.93,1037.97l.36,1.59h-12.66v-1.59h12.29ZM1676.88,1031.57l-2.45,7.98h-7.98l1.63-1.59c1.57,0,2.89-.26,3.95-.79,1.06-.53,1.93-1.28,2.63-2.25.7-.97,1.28-2.09,1.77-3.36h.45ZM1674.11,1006.99v1.31l-5.53-.5c.66,0,1.37-.05,2.11-.14.74-.09,1.43-.2,2.06-.32.63-.12,1.09-.24,1.36-.36ZM1672.07,1019.78v3.45h-3.18v-.09c.79-.03,1.44-.32,1.95-.86.51-.54.77-1.19.77-1.95v-.54h.45ZM1672.07,1024.58v3.45h-.45v-.59c0-.76-.26-1.41-.77-1.95-.51-.54-1.16-.82-1.95-.82v-.09h3.18ZM1674.11,1009.25v4.17h-.45v-.73c0-.94-.31-1.72-.93-2.36-.62-.64-1.41-.97-2.38-1v-.09h3.76Z"/>
  </g>
  <g>
    <path class="st1" d="M620.22,815.91c1.24.5,3.13.99,5.67,1.49,2.54.5,5.36.93,8.46,1.3,3.1.37,5.95.56,8.55.56l-22.68,2.04v-5.39ZM735.3,819.25v7.06h-115.08v-7.06h115.08ZM638.25,825.76v.56c-4.83.12-8.74,1.67-11.71,4.65-2.97,2.97-4.46,6.88-4.46,11.71v2.42l-1.86.19v-19.52h18.03ZM667.07,936.01v13.57h-14.87v-1.86h2.42c3.22,0,5.98-1.14,8.27-3.44s3.5-5.05,3.63-8.27h.56ZM689.19,820v129.58h-22.68v-129.58h22.68ZM688.63,936.01h.56c.12,3.22,1.33,5.98,3.62,8.27,2.29,2.29,5.05,3.44,8.27,3.44h2.42v1.86h-14.87v-13.57ZM735.3,815.91v5.39l-22.68-2.04c2.72,0,5.61-.19,8.65-.56,3.04-.37,5.86-.8,8.46-1.3,2.6-.49,4.46-.99,5.58-1.49ZM735.3,825.76v19.52l-1.86-.19v-2.42c0-4.83-1.49-8.74-4.46-11.71-2.97-2.97-6.88-4.52-11.71-4.65v-.56h18.03Z"/>
    <path class="st1" d="M771.18,833.01h-.56c-.13-3.22-1.33-5.98-3.63-8.27-2.29-2.29-5.05-3.44-8.27-3.44h-2.42v-1.86h14.87v13.57ZM771.18,936.01v13.57h-14.87v-1.86h2.42c3.22,0,5.98-1.14,8.27-3.44s3.5-5.05,3.63-8.27h.56ZM793.3,819.44v130.14h-22.68v-130.14h22.68ZM860.42,881.35v7.07h-68.97v-7.07h68.97ZM792.74,833.01v-13.57h14.87v1.86h-2.42c-3.23,0-5.98,1.15-8.27,3.44-2.29,2.29-3.5,5.05-3.63,8.27h-.56ZM792.74,936.01h.56c.12,3.22,1.33,5.98,3.63,8.27,2.29,2.29,5.05,3.44,8.27,3.44h2.42v1.86h-14.87v-13.57ZM859.3,833.01h-.56c0-3.22-1.18-5.98-3.53-8.27-2.36-2.29-5.14-3.44-8.37-3.44h-2.42v-1.86h14.87v13.57ZM859.3,936.01v13.57h-14.87v-1.86h2.42c3.22,0,6.01-1.14,8.37-3.44,2.35-2.29,3.53-5.05,3.53-8.27h.56ZM881.43,819.44v130.14h-22.68v-130.14h22.68ZM880.87,833.01v-13.57h14.87v1.86h-2.42c-3.23,0-5.98,1.15-8.27,3.44s-3.5,5.05-3.63,8.27h-.56ZM880.87,936.01h.56c.12,3.22,1.33,5.98,3.63,8.27,2.29,2.29,5.05,3.44,8.27,3.44h2.42v1.86h-14.87v-13.57Z"/>
    <path class="st1" d="M937.94,833.01h-.56c-.13-3.22-1.33-5.98-3.63-8.27-2.29-2.29-5.05-3.44-8.27-3.44h-2.42v-1.86h14.87v13.57ZM937.94,936.01v13.57h-14.87v-1.86h2.42c3.22,0,5.98-1.14,8.27-3.44,2.29-2.29,3.5-5.05,3.63-8.27h.56ZM960.06,819.44v130.14h-22.68v-130.14h22.68ZM982.37,819.44c5.58,0,10.88.68,15.9,2.04,5.02,1.37,9.45,3.47,13.29,6.32,3.84,2.85,6.85,6.48,9.02,10.88,2.17,4.4,3.25,9.64,3.25,15.71,0,5.45-1.18,10.85-3.53,16.17-2.36,5.33-5.83,9.76-10.41,13.29-4.59,3.53-10.23,5.55-16.92,6.04,3.35,1.12,6.54,3.19,9.57,6.23,3.04,3.04,5.55,6.04,7.53,9.02.12.12.9,1.27,2.32,3.44,1.42,2.17,3.19,4.8,5.3,7.9,2.11,3.1,4.3,6.2,6.6,9.3,2.29,3.1,4.31,5.7,6.04,7.81,2.72,3.22,5.23,5.86,7.53,7.9,2.29,2.05,4.74,3.6,7.34,4.65,2.6,1.05,5.58,1.58,8.92,1.58v1.86h-15.43c-6.45,0-12.18-.68-17.2-2.04-5.02-1.36-9.39-3.41-13.11-6.14-3.72-2.72-6.94-6.13-9.67-10.23-.74-1.12-1.8-2.82-3.16-5.11-1.37-2.29-2.85-4.86-4.46-7.72-1.61-2.85-3.19-5.61-4.74-8.27-1.55-2.66-2.85-5.05-3.9-7.16-1.05-2.11-1.77-3.59-2.14-4.46-1.98-3.59-4.15-6.51-6.51-8.74-2.36-2.23-4.9-3.47-7.62-3.72v-1.86c.25,0,1.05.03,2.42.09,1.36.06,2.91.03,4.65-.09,3.35-.12,6.72-.74,10.13-1.86,3.41-1.12,6.48-3.19,9.2-6.23,2.72-3.04,4.71-7.28,5.95-12.73.25-1.12.49-2.54.74-4.28.25-1.73.31-3.53.19-5.39-.37-8.67-2.6-15.24-6.69-19.71-4.09-4.46-9.3-6.82-15.62-7.07-2.36-.12-4.83-.15-7.44-.09-2.6.06-4.87.09-6.79.09h-3.44c0-.12-.16-.8-.46-2.04-.31-1.24-.78-3.04-1.39-5.39h24.73ZM959.51,936.01h.56c0,3.22,1.18,5.98,3.53,8.27,2.35,2.29,5.14,3.44,8.37,3.44h2.23v1.86h-14.69v-13.57Z"/>
    <path class="st1" d="M1078.12,833.01h-.56c-.13-3.22-1.33-5.98-3.63-8.27-2.29-2.29-5.05-3.44-8.27-3.44h-2.42v-1.86h14.87v13.57ZM1078.12,936.01v13.57h-14.87v-1.86h2.42c3.22,0,5.98-1.14,8.27-3.44,2.29-2.29,3.5-5.05,3.63-8.27h.56ZM1100.25,819.44v130.14h-22.68v-130.14h22.68ZM1151.19,819.44v7.25h-51.5v-7.25h51.5ZM1142.45,881.91v7.07h-42.76v-7.07h42.76ZM1149.51,942.33l3.16,7.25h-52.99v-7.25h49.82ZM1162.53,914.26l-9.3,35.32h-34.77l6.69-7.25c6.32,0,11.77-1.14,16.36-3.44,4.58-2.29,8.43-5.58,11.53-9.85,3.1-4.28,5.64-9.2,7.62-14.78h1.86ZM1142.45,866.29v15.99h-15.43v-.37c3.84-.12,7.06-1.49,9.67-4.09,2.6-2.6,3.9-5.82,3.9-9.67v-1.86h1.86ZM1142.45,888.6v15.99h-1.86v-2.05c0-3.84-1.3-7.06-3.9-9.67-2.6-2.6-5.83-3.9-9.67-3.9v-.37h15.43ZM1151.19,816.09v5.39l-22.68-2.04c2.72,0,5.61-.19,8.65-.56,3.04-.37,5.86-.8,8.46-1.3,2.6-.49,4.46-.99,5.58-1.49ZM1151.19,826.13v19.34h-1.86v-2.6c0-4.71-1.49-8.58-4.46-11.62-2.97-3.04-6.94-4.62-11.9-4.74v-.37h18.22Z"/>
    <path class="st1" d="M1227.41,816.84c2.35,0,5.14.12,8.37.37,3.22.25,6.47.59,9.76,1.02,3.28.44,6.23.87,8.83,1.3,2.6.44,4.4.9,5.39,1.39l-1.49,23.61h-1.86c0-6.32-2.26-11.34-6.79-15.06-4.53-3.72-10.38-5.58-17.57-5.58s-12.92,1.86-17.2,5.58c-4.28,3.72-6.48,8.24-6.6,13.57-.25,3.1.65,6.11,2.7,9.02,2.04,2.91,4.8,5.61,8.27,8.09l35.88,26.59c5.08,3.35,8.8,7.41,11.15,12.18,2.35,4.77,3.41,10.13,3.16,16.08-.37,11.4-4.49,20.45-12.36,27.14-7.87,6.69-18.56,10.04-32.07,10.04-4.59,0-9.27-.4-14.04-1.21-4.77-.81-9.14-2.04-13.11-3.72-3.97-1.67-7.13-3.69-9.48-6.04-.74-2.48-1.05-5.48-.93-9.02.12-3.53.62-7.19,1.49-10.97.87-3.78,1.92-6.97,3.16-9.57h1.67c-.5,6.32.56,12.06,3.16,17.2,2.6,5.14,6.41,9.17,11.43,12.08,5.02,2.91,10.94,4.31,17.75,4.18,7.68-.25,13.85-2.42,18.5-6.51,4.65-4.09,6.97-9.36,6.97-15.8,0-3.72-.99-7.09-2.97-10.13-1.98-3.04-5.08-5.79-9.3-8.27l-33.65-25.47c-5.7-3.72-9.76-8.21-12.18-13.48-2.42-5.27-3.44-10.75-3.07-16.45.37-5.95,2.05-11.37,5.02-16.27,2.97-4.89,7.16-8.77,12.55-11.62,5.39-2.85,11.87-4.28,19.43-4.28ZM1259.94,818.7l-.19,3.9h-19.34v-3.9h19.52Z"/>
    <path class="st1" d="M1311.07,833.01h-.56c-.12-3.22-1.33-5.98-3.63-8.27-2.29-2.29-5.05-3.44-8.27-3.44h-2.42v-1.86h14.87v13.57ZM1311.07,936.01v13.57h-14.87v-1.86h2.42c3.22,0,5.98-1.14,8.27-3.44,2.29-2.29,3.5-5.05,3.63-8.27h.56ZM1333.19,819.44v130.14h-22.68v-130.14h22.68ZM1400.31,881.35v7.07h-68.97v-7.07h68.97ZM1332.64,833.01v-13.57h14.87v1.86h-2.42c-3.23,0-5.98,1.15-8.27,3.44-2.3,2.29-3.5,5.05-3.63,8.27h-.56ZM1332.64,936.01h.56c.12,3.22,1.33,5.98,3.63,8.27,2.29,2.29,5.05,3.44,8.27,3.44h2.42v1.86h-14.87v-13.57ZM1399.19,833.01h-.56c0-3.22-1.18-5.98-3.53-8.27-2.36-2.29-5.14-3.44-8.37-3.44h-2.42v-1.86h14.87v13.57ZM1399.19,936.01v13.57h-14.87v-1.86h2.42c3.22,0,6.01-1.14,8.37-3.44,2.35-2.29,3.53-5.05,3.53-8.27h.56ZM1421.32,819.44v130.14h-22.68v-130.14h22.68ZM1420.76,833.01v-13.57h14.87v1.86h-2.42c-3.23,0-5.98,1.15-8.27,3.44-2.29,2.29-3.5,5.05-3.62,8.27h-.56ZM1420.76,936.01h.56c.12,3.22,1.33,5.98,3.62,8.27,2.29,2.29,5.05,3.44,8.27,3.44h2.42v1.86h-14.87v-13.57Z"/>
    <path class="st1" d="M1531.38,816.84c14.25,0,26.74,2.76,37.46,8.27,10.72,5.52,18.99,13.36,24.82,23.52,5.82,10.16,8.74,22.12,8.74,35.88s-2.91,25.72-8.74,35.88c-5.83,10.16-14.1,18-24.82,23.52-10.72,5.52-23.21,8.27-37.46,8.27s-26.9-2.76-37.55-8.27c-10.66-5.51-18.9-13.35-24.73-23.52-5.83-10.16-8.74-22.12-8.74-35.88s2.91-25.72,8.74-35.88c5.82-10.16,14.07-18,24.73-23.52,10.66-5.51,23.18-8.27,37.55-8.27ZM1531.38,945.12c9.3,0,17.38-2.48,24.26-7.44,6.88-4.96,12.21-11.96,15.99-21.01,3.78-9.05,5.67-19.77,5.67-32.16s-1.89-23.11-5.67-32.16c-3.78-9.05-9.11-16.05-15.99-21.01-6.88-4.96-14.97-7.44-24.26-7.44s-17.38,2.48-24.26,7.44c-6.88,4.96-12.21,11.96-15.99,21.01-3.78,9.05-5.67,19.77-5.67,32.16s1.89,23.12,5.67,32.16c3.78,9.05,9.11,16.05,15.99,21.01,6.88,4.96,14.97,7.44,24.26,7.44Z"/>
    <path class="st1" d="M1640.14,833.01h-.56c-.12-3.22-1.33-5.98-3.63-8.27-2.29-2.29-5.05-3.44-8.27-3.44h-2.42v-1.86h14.87v13.57ZM1640.14,936.01v13.57h-14.87v-1.86h2.42c3.22,0,5.98-1.14,8.27-3.44,2.29-2.29,3.5-5.05,3.63-8.27h.56ZM1662.26,819.44v130.14h-22.68v-130.14h22.68ZM1661.71,833.01v-13.57h14.87v1.86h-2.42c-3.23,0-5.98,1.15-8.27,3.44-2.3,2.29-3.5,5.05-3.63,8.27h-.56ZM1711.53,942.33l3.16,7.25h-52.99v-7.25h49.82ZM1724.54,914.26l-9.3,35.32h-34.77l6.69-7.25c6.32,0,11.77-1.14,16.36-3.44,4.58-2.29,8.43-5.58,11.53-9.85,3.1-4.28,5.64-9.2,7.62-14.78h1.86Z"/>
    <path class="st1" d="M1758.94,833.01h-.56c0-3.22-1.18-5.98-3.53-8.27-2.36-2.29-5.14-3.44-8.37-3.44h-2.23l-.19-1.86h14.87v13.57ZM1758.94,936.01v13.57h-14.87v-1.86h2.42c3.22,0,5.98-1.14,8.27-3.44,2.29-2.29,3.5-5.05,3.63-8.27h.56ZM1781.06,819.44v130.14h-22.68v-130.14h22.68ZM1810.06,819.44c14.13,0,26.43,2.63,36.9,7.9,10.47,5.27,18.56,12.8,24.26,22.59,5.7,9.79,8.55,21.32,8.55,34.58s-2.85,24.76-8.55,34.49c-5.7,9.73-13.79,17.26-24.26,22.59-10.48,5.33-22.77,7.99-36.9,7.99h-42.76l-.19-7.06h41.46c9.54,0,17.76-2.39,24.63-7.16,6.88-4.77,12.24-11.49,16.08-20.17,3.84-8.67,5.76-18.9,5.76-30.68s-1.92-22-5.76-30.68c-3.84-8.67-9.24-15.4-16.18-20.17-6.94-4.77-15.12-7.16-24.54-7.16h-43.32v-7.06h44.81Z"/>
  </g>
  <g>
    <path class="st1" d="M838.23,750.57c-.12,0-.24.01-.36.02,0,0,.12,0,.36-.02Z"/>
    <path class="st1" d="M1661.77,750.57c.24.01.36.02.36.02-.12,0-.24-.01-.36-.02Z"/>
    <path class="st1" d="M1674.35,464.18s-86.86-2.87-176.53,29.02c-44.21,15.72-129.8,51.59-240.99,129.98,0,0,77.76,68.47,187.49,96.12,0,0-93.91-19.04-194.32-90.68-100.41,71.64-194.32,90.68-194.32,90.68,109.73-27.66,187.49-96.12,187.49-96.12-111.19-78.39-196.79-114.26-240.99-129.98-89.68-31.89-176.53-29.02-176.53-29.02,0,0,62.16-1.99,150,31.13,135.87,51.24,231.21,131.61,231.21,131.61-152.65,109.2-358.85,123.04-368.63,123.64,132.46-7.72,210.87-23.73,283.35-46.38,72.55-22.67,128.42-51.54,128.42-51.54,0,0,55.87,28.87,128.42,51.54,72.48,22.65,150.89,38.66,283.35,46.38-9.78-.6-215.98-14.44-368.63-123.64,0,0,95.34-80.37,231.21-131.61,87.84-33.12,150-31.13,150-31.13Z"/>
  </g>
</svg>