<?xml version="1.0" encoding="UTF-8"?>
<svg id="Layer_1" data-name="Layer 1" xmlns="http://www.w3.org/2000/svg" viewBox="0 0 684 110.65">
  <defs>
    <style>
      .cls-1 {
        fill: #ba752b;
      }

      .cls-2, .cls-3 {
        fill: #fff;
      }

      .cls-3 {
        fill-rule: evenodd;
      }

      .cls-4 {
        fill: #4a2d8a;
      }
    </style>
  </defs>
  <circle class="cls-4" cx="225.59" cy="36.38" r="4.33"/>
  <circle class="cls-4" cx="225.59" cy="49.21" r="4.33"/>
  <circle class="cls-4" cx="225.59" cy="61.22" r="4.33"/>
  <circle class="cls-4" cx="225.59" cy="73.23" r="4.33"/>
  <g>
    <path class="cls-2" d="M227.4,36.81s-.05-.05-.06-.09c0-.02,0-.05,0-.1.03-.26.02-.52-.05-.76-.11-.42-.34-.76-.68-1.03-.05-.04-.11-.08-.17-.12-.23-.15-.48-.24-.76-.29-.03,0-.05-.02-.08-.04-.02-.02-.03-.04-.05-.07-.03-.07-.01-.14.06-.19.03-.03.08-.04.13-.03.45.07.84.26,1.17.56.05.05.1.09.15.14.32.34.51.75.59,1.21.01.07.02.14.02.2.01.16,0,.33-.02.5,0,.05-.03.08-.06.11-.03.02-.06.04-.1.04-.04,0-.07-.01-.11-.04h0Z"/>
    <path class="cls-2" d="M225.17,37.23s.08.02.11.01c.02,0,.06-.03.13-.07.03-.02.06-.04.09-.06.04-.02.07-.04.09-.05.12-.05.24-.05.36-.01.1.03.18.1.24.19.02.04.09.14.2.32.06.1.1.16.1.18.04.08.05.17.04.26-.01.11-.06.2-.13.28-.03.03-.08.07-.15.11-.08.05-.16.1-.24.15-.1.06-.16.09-.18.1-.09.04-.19.05-.3.03-.05-.01-.11-.04-.19-.08-.15-.08-.29-.17-.42-.27-.36-.26-.66-.57-.92-.92-.04-.06-.08-.11-.11-.17-.39-.62-.59-1.29-.62-2.03,0-.09,0-.16,0-.2.02-.11.08-.21.16-.28.02-.02.08-.05.17-.11.16-.1.27-.16.32-.19.05-.03.11-.05.17-.06.06,0,.12,0,.18.01.13.03.23.11.31.23.08.14.17.27.25.41.06.1.08.2.07.31,0,.07-.03.13-.06.19-.04.07-.1.13-.18.18-.05.03-.1.06-.14.09-.06.03-.09.06-.11.09-.03.04-.03.09-.01.16.14.43.37.81.67,1.13.04.04.06.06.08.07h0Z"/>
    <path class="cls-2" d="M226.76,36.71s-.07-.09-.06-.16c0-.02,0-.03,0-.03.04-.36-.04-.67-.25-.95-.21-.28-.49-.45-.84-.52-.03,0-.06-.01-.07-.02-.05-.03-.07-.07-.08-.12,0-.05.01-.09.04-.12.04-.04.1-.06.18-.05.26.05.49.15.68.29.26.2.45.45.57.75.1.26.13.52.09.8,0,.04-.02.08-.03.1-.02.04-.06.06-.11.07-.05,0-.09,0-.13-.04h0Z"/>
    <path class="cls-2" d="M225.43,35.68s-.07-.08-.06-.14c0-.03.01-.06.03-.09.02-.03.05-.05.08-.06.03,0,.07-.01.12,0,.04,0,.09.02.13.03.22.08.4.22.52.41.04.06.07.12.09.18.06.15.07.31.05.47,0,.07-.04.12-.1.14-.03.01-.05.02-.08.01-.03,0-.05-.01-.07-.03-.05-.04-.08-.09-.07-.17.02-.21-.03-.38-.16-.53-.09-.1-.2-.17-.33-.2,0,0-.02,0-.05,0-.03,0-.06-.02-.08-.04h0Z"/>
  </g>
  <path class="cls-3" d="M227.39,47.41h-3.6c-.34,0-.61.31-.61.69v2.22c0,.38.27.69.61.69h3.6c.33,0,.6-.31.6-.69v-2.22c0-.38-.27-.69-.6-.69ZM223.48,48.31l1.05.9-1.05.89v-1.79ZM227.39,50.66h-3.6c-.17,0-.31-.15-.31-.34l1.18-1,.66.55c.08.07.17.11.27.11.09,0,.18-.04.26-.11l.66-.55,1.18,1c0,.19-.14.34-.3.34ZM227.69,50.1l-1.05-.89,1.05-.9v1.79ZM226.51,49.1l-.12.11-.62.53c-.06.04-.12.07-.18.07-.07,0-.13-.03-.18-.07l-1.93-1.64c0-.19.14-.34.31-.34h3.6c.16,0,.3.15.3.34l-1.18,1Z"/>
  <path class="cls-2" d="M227.44,59.36s-.11-.09-.15-.14c-.47-.4-1.03-.62-1.67-.63h-.08c-.68.03-1.28.27-1.76.73-.05.04-.1.09-.15.15-.43.47-.65,1.05-.66,1.7v.09c0,.55.17,1.04.48,1.48.15.21.34.41.56.57.05.04.11.08.16.12.41.26.88.4,1.38.41h.07c.65-.01,1.21-.23,1.69-.65.18-.15.34-.33.47-.54.04-.06.08-.11.11-.18.21-.38.31-.78.32-1.2v-.09c-.02-.72-.28-1.33-.77-1.82ZM224.73,59.06s.01,0,.01.01c-.18.24-.32.5-.41.8h-.01c-.18-.02-.35-.06-.52-.11-.01,0-.01-.01-.01-.01.26-.31.58-.54.94-.69ZM223.59,60.03s.01-.01.02,0c.21.05.41.11.63.14v.02c-.07.29-.1.57-.11.87h-.01s-.84.01-.84.01h-.01c.03-.38.14-.72.32-1.04ZM223.59,62.38h-.01c-.18-.31-.28-.65-.31-1.01h.86c.01.3.05.58.11.85t-.01.02c-.22.03-.43.09-.64.14ZM224.75,63.38c-.28-.11-.53-.27-.75-.48-.08-.07-.16-.16-.23-.25h.01c.17-.05.36-.09.54-.11h.01c.05.17.12.34.2.48.06.12.14.24.22.34v.02ZM225.43,62.45v1.03s0,.01-.01.01c-.12-.04-.22-.1-.31-.19-.1-.1-.19-.21-.26-.33-.08-.15-.16-.31-.21-.47,0,0,0-.01.01-.01.07,0,.14-.01.21-.02.08,0,.15,0,.21-.02.12,0,.24-.01.36-.01h0ZM225.43,62.13h0c-.3.01-.59.03-.88.06-.01,0-.01-.01-.01-.01-.06-.26-.09-.53-.11-.81h1v.76ZM225.43,61.07h-.99s-.01-.01-.01-.01c.02-.28.05-.56.11-.83,0,0,.01-.01.02-.01.27.03.53.05.81.06h.06v.79ZM225.43,59.98c-.26-.01-.52-.03-.78-.06-.01,0-.02,0-.01-.01.05-.16.13-.31.2-.46.08-.13.18-.25.28-.35.09-.08.19-.14.31-.17v1.05ZM226.44,59.06c.37.15.69.39.95.71h0c-.18.06-.35.08-.54.12h0c-.09-.3-.23-.58-.42-.82t.01-.01ZM225.74,58.93h.01c.05.01.1.04.15.07.1.05.18.13.26.22.07.09.14.19.2.29.07.13.13.27.18.41,0,0,0,.01-.01.01-.25.02-.53.04-.78.05t-.01-.01v-1.04ZM225.74,60.29h.01c.29,0,.59-.04.87-.06h.01c.06.27.1.55.11.83,0,0,0,.01-.01.01h-.99v-.78ZM225.74,61.37h1c-.01.28-.05.55-.11.82-.01,0-.01.01-.01.01-.27-.03-.54-.06-.79-.06h-.08s-.01,0-.01-.01v-.76ZM226,63.34c-.07.07-.15.12-.25.15t-.01-.01v-1.03h0c.26,0,.54.02.79.05-.06.19-.14.36-.24.52-.09.13-.18.25-.29.32ZM227.39,62.67c-.25.3-.56.53-.91.69-.04.01-.05.02-.06.03t0-.01h0c.09-.12.16-.24.23-.37.08-.14.14-.3.2-.46h0c.19.03.37.07.54.11h0ZM227.59,62.39h-.02c-.2-.06-.42-.11-.63-.15,0,0-.01,0-.01-.01.07-.28.11-.56.11-.86h.85c-.02.37-.12.7-.3,1.02ZM227.89,61.07h-.83s-.02-.01-.02-.01c0-.29-.04-.58-.11-.87h.01c.21-.04.43-.09.64-.15h.01c.18.31.28.65.3,1.02h0Z"/>
  <path class="cls-3" d="M225.49,70.69c-1.17,0-2.12.95-2.12,2.12,0,.53.31,1.17.71,1.73.45.65.99,1.21,1.19,1.41.05.05.08.08.08.08.08.07.19.07.27,0,0,0,.03-.03.09-.09.21-.21.74-.76,1.18-1.4.4-.56.72-1.2.72-1.73,0-1.17-.95-2.12-2.12-2.12ZM225.49,73.87c-.59,0-1.06-.48-1.06-1.06s.47-1.06,1.06-1.06,1.06.47,1.06,1.06-.48,1.06-1.06,1.06Z"/>
  <g>
    <path class="cls-1" d="M86.06,80.29v.04h.06c.07,0,.14.03.19.08.06.06.09.12.09.2h.01v-.32h-.35ZM86.4,83.06c0,.08-.03.15-.09.2-.05.06-.12.08-.19.08h-.06v.05h.35v-.33h-.01ZM86.4,80.29v3.1h.41v-3.1h-.41ZM86.77,81.78v.15h1.77v-.15h-1.77ZM86.8,80.29v.32h.01c0-.08.03-.14.09-.2.05-.05.12-.08.2-.08h.05v-.04h-.35ZM87.1,83.34c-.08,0-.15-.02-.2-.08-.06-.05-.09-.12-.09-.2h-.01v.33h.35v-.05h-.05ZM88.16,80.29v.04h.06c.07,0,.14.03.2.08.05.06.08.12.08.2h.01v-.32h-.35ZM88.5,83.06c0,.08-.03.15-.08.2-.06.06-.13.08-.2.08h-.06v.05h.35v-.33h-.01ZM88.5,80.29v3.1h.41v-3.1h-.41ZM88.9,80.29v.32h.01c0-.08.03-.14.09-.2.05-.05.12-.08.2-.08h.05v-.04h-.35ZM89.2,83.34c-.08,0-.15-.02-.2-.08-.06-.05-.09-.12-.09-.2h-.01v.33h.35v-.05h-.05Z"/>
    <path class="cls-1" d="M90.62,80.29v.04h.06c.07,0,.14.03.19.08.06.06.09.12.09.2h.01v-.32h-.35ZM90.96,83.06c0,.08-.03.15-.09.2-.05.06-.12.08-.19.08h-.06v.05h.35v-.33h-.01ZM90.96,80.29v3.1h.41v-3.1h-.41ZM91.36,80.29v.15h1.22v-.15h-1.22ZM91.36,81.78v.16h1.02v-.16h-1.02ZM92.56,83.23h-1.2v.16h1.23l-.03-.16ZM92.8,82.61c-.05.12-.1.23-.17.33-.07.09-.15.16-.26.22-.1.05-.23.07-.38.07l-.16.16h.78l.24-.78h-.05ZM92.44,80.24c-.06.01-.13.02-.2.03-.07.01-.14.02-.2.02l.54.05v-.13s-.07.02-.14.03ZM92.33,81.46v.05c0,.07-.02.14-.07.19-.05.05-.12.08-.19.08h0s.31,0,.31,0v-.33h-.05ZM92.07,81.93h0c.07.01.14.03.19.08.05.06.07.12.07.2v.05h.05v-.33h-.31ZM92.21,80.43h0c.09.01.17.04.23.11.06.06.09.13.09.23v.07h.05v-.41h-.37Z"/>
    <path class="cls-1" d="M94.7,83.34s-.07-.01-.11-.03c-.03-.02-.05-.05-.07-.09-.01-.04-.01-.08,0-.12,0,0,.01-.02.01-.04h-.27v.02c-.06.1-.11.16-.18.2-.07.04-.14.06-.21.06h-.04v.05h.91v-.05h-.04ZM95.48,80.22h-.04s-.01.06-.02.12c-.02.05-.04.1-.06.16-.03.06-.05.1-.07.14-.02.04-.03.07-.03.07l-1,2.35v.02s-.14.3-.14.3h.29l.11-.28s.01-.02.01-.04l.28-.68.06-.15.52-1.31.13-.32-.04-.38ZM94.7,82.23v.15h1.35v-.15h-1.35ZM96.71,83.06l-1.23-2.84-.14.56.05.14.5,1.31.06.15.26.68v.02l.11.28h.52l-.13-.3ZM97.1,83.34c-.07,0-.14-.02-.21-.06-.07-.04-.13-.11-.18-.22h-.5v.02c.03.08.03.14-.01.19-.05.05-.1.07-.16.07h-.04v.05h1.13v-.05h-.03Z"/>
    <path class="cls-1" d="M98.19,80.29v.04h.06c.07,0,.14.03.19.08.06.06.09.12.09.2h.01v-.32h-.35ZM98.53,83.06c0,.08-.03.15-.09.2-.05.06-.12.08-.19.08h-.06v.05h.35v-.33h-.01ZM98.53,80.29v3.1h.41v-3.1h-.41ZM98.93,80.29v.32h.01c.01-.08.03-.14.09-.2.05-.05.12-.08.2-.08h.05v-.04h-.35ZM100.13,83.23h-1.2v.16h1.24l-.04-.16ZM100.37,82.61c-.04.12-.1.23-.17.33-.07.09-.15.16-.26.22-.1.05-.23.07-.38.07l-.16.16h.78l.24-.78h-.05Z"/>
    <path class="cls-1" d="M101.37,80.27c-.07-.01-.14-.02-.2-.03s-.11-.03-.14-.04v.13l.54-.05c-.06,0-.13,0-.2-.01ZM101.03,80.28v.15h2.66v-.15h-2.66ZM101.03,80.42v.41h.05v-.07c0-.09.03-.17.09-.23.06-.06.14-.09.23-.1h0s-.37-.01-.37-.01ZM102.15,83.06c0,.08-.03.15-.08.2-.06.06-.12.08-.2.08h-.06v.05h.36v-.33h-.02ZM102.15,80.3v3.09h.42v-3.09h-.42ZM102.85,83.34c-.08,0-.14-.02-.2-.08-.05-.05-.08-.12-.08-.2h-.02v.33h.36v-.05h-.06ZM103.55,80.24c-.06.01-.12.02-.2.03-.07.01-.14.01-.2.01l.54.05v-.13s-.07.03-.14.04ZM103.32,80.42h0c.09.02.17.05.23.11.06.06.09.14.09.23v.07h.05v-.41h-.37Z"/>
    <path class="cls-1" d="M104.89,80.29v.04h.06c.07,0,.14.03.19.08.06.06.09.12.09.2h.01v-.32h-.35ZM105.23,83.06c0,.08-.03.15-.09.2-.05.06-.12.08-.19.08h-.06v.05h.35v-.33h-.01ZM105.23,80.29v3.1h.41v-3.1h-.41ZM105.6,81.78v.15h1.77v-.15h-1.77ZM105.63,80.29v.32h.01c0-.08.03-.14.09-.2.05-.05.12-.08.19-.08h.06v-.04h-.35ZM105.92,83.34c-.07,0-.14-.02-.19-.08-.06-.05-.09-.12-.09-.2h-.01v.33h.35v-.05h-.06ZM106.99,80.29v.04h.06c.07,0,.14.03.2.08.05.06.08.12.08.2h.01v-.32h-.35ZM107.33,83.06c0,.08-.03.15-.08.2-.06.06-.13.08-.2.08h-.06v.05h.35v-.33h-.01ZM107.33,80.29v3.1h.41v-3.1h-.41ZM107.73,80.29v.32h.01c0-.08.03-.14.09-.2.05-.05.12-.08.19-.08h.06v-.04h-.35ZM108.02,83.34c-.07,0-.14-.02-.19-.08-.06-.05-.09-.12-.09-.2h-.01v.33h.35v-.05h-.06Z"/>
    <path class="cls-1" d="M112,83.34s-.07-.01-.11-.03c-.03-.02-.05-.05-.07-.09-.01-.04-.01-.08,0-.12,0,0,.01-.02.01-.04h-.27v.02c-.06.1-.11.16-.18.2-.07.04-.14.06-.21.06h-.04v.05h.91v-.05h-.04ZM112.78,80.22h-.04s-.01.06-.02.12c-.02.05-.04.1-.06.16-.03.06-.05.1-.07.14-.01.04-.03.07-.03.07l-1,2.35v.02s-.14.3-.14.3h.29l.11-.28s.01-.02.01-.04l.28-.68.06-.15.52-1.31.13-.32-.04-.38ZM112,82.23v.15h1.35v-.15h-1.35ZM114.01,83.06l-1.23-2.84-.14.56.05.14.5,1.31.06.15.26.68s.01.03.01.04l.1.26h.52l-.13-.3ZM114.4,83.34c-.07,0-.14-.02-.21-.06-.07-.04-.13-.11-.18-.22h-.5s.01.03.01.04c.03.07.01.13-.02.17-.05.05-.1.07-.16.07h-.04v.05h1.14v-.05h-.04Z"/>
    <path class="cls-1" d="M115.78,83.07c0,.08-.02.14-.08.19-.05.06-.11.08-.19.08h-.08v.05h.37v-.32h-.02ZM116.12,81.03v-.42l-.34-.39h-.04c.03.21.04.4.04.55v2.62h.35v-2.36ZM118.44,82.95l-.3-.31-2.36-2.42.05.51.29.3,2.37,2.42-.05-.5ZM116.4,83.34c-.08,0-.14-.02-.19-.08-.06-.05-.08-.11-.08-.19h-.02v.32h.37v-.05h-.08ZM117.78,80.29v.04h.08c.08,0,.15.03.2.08.05.05.08.11.08.19h.01v-.31h-.37ZM118.49,83.16c-.01-.08-.01-.18-.01-.28v-2.59h-.34v2.77l.35.39h.04c-.02-.1-.03-.2-.04-.29ZM118.47,80.29v.31h0c0-.08.03-.14.08-.19.06-.05.12-.08.2-.08h.08v-.04h-.37Z"/>
    <path class="cls-1" d="M120.08,80.29v.04h.06c.08,0,.15.03.2.08.06.06.09.12.09.2h.01v-.32h-.36ZM120.43,83.06c-.01.08-.04.15-.09.2-.06.06-.12.08-.2.08h-.06v.05h.36v-.33h-.01ZM120.43,80.29v3.1h.41v-3.1h-.41ZM123.04,81.02c-.13-.24-.32-.42-.56-.54-.25-.13-.53-.19-.86-.19h-1.03v.15h1.01c.24,0,.45.06.63.17.18.12.31.28.41.49.1.21.15.45.15.74s-.05.53-.15.74c-.1.21-.23.37-.41.48-.18.12-.39.18-.63.18h-.97v.15h.99c.33,0,.61-.07.86-.19.24-.13.43-.31.56-.54.14-.24.21-.51.21-.82s-.07-.59-.21-.82Z"/>
    <path class="cls-1" d="M126.61,80.29v.04h.06c.08,0,.14.03.2.08.05.06.08.12.08.2h.02v-.32h-.36ZM126.95,83.06c0,.08-.03.15-.08.2-.06.06-.12.08-.2.08h-.06v.05h.36v-.33h-.02ZM126.95,80.29v3.1h.41v-3.1h-.41ZM128.74,80.69c-.08-.13-.19-.23-.33-.3-.15-.07-.32-.1-.54-.1h-.56c.01.05.03.1.04.15h.45c.19,0,.33.06.43.18.11.12.16.28.16.48v.14s-.02.09-.02.12c-.04.12-.09.22-.16.29-.07.07-.15.12-.22.15-.08.03-.16.05-.23.06-.07,0-.15,0-.25-.01v.05c.12.06.24.1.37.11.12.02.24,0,.36-.03.12-.04.22-.1.31-.17.09-.08.17-.18.22-.29.06-.11.08-.24.08-.38,0-.17-.04-.32-.11-.45ZM127.65,83.34c-.08,0-.15-.02-.2-.08-.05-.05-.08-.12-.09-.2h-.01v.33h.36v-.05h-.06Z"/>
    <path class="cls-1" d="M130.15,80.29v.04h.05c.08,0,.15.03.2.08.06.06.09.12.09.2h.01v-.32h-.35ZM130.49,83.06c-.01.08-.03.15-.09.2-.05.06-.12.08-.2.08h-.05v.05h.35v-.33h-.01ZM130.49,80.29v3.1h.41v-3.1h-.41ZM130.89,80.29v.15h1.21v-.15h-1.21ZM130.89,81.78v.16h1.02v-.16h-1.02ZM132.09,83.23h-1.2v.16h1.23l-.03-.16ZM132.33,82.61c-.05.12-.1.23-.17.33-.07.09-.16.16-.26.22-.1.05-.23.07-.38.07l-.16.16h.78l.23-.78h-.04ZM131.97,80.24c-.06.01-.13.02-.2.03-.07.01-.14.02-.21.02l.54.05v-.13s-.07.02-.13.03ZM131.86,81.46v.05c0,.07-.02.14-.07.19s-.12.08-.2.08h0s.32,0,.32,0v-.33h-.05ZM131.59,81.93h0c.08.01.15.03.2.08.05.06.07.12.07.2v.05h.05v-.33h-.32ZM131.74,80.43h0c.09.01.17.04.23.11.06.06.09.13.09.23v.07h.04v-.41h-.36Z"/>
    <path class="cls-1" d="M133.64,80.29v.04h.05c.08,0,.15.03.2.08.06.06.09.12.09.2h.01v-.32h-.35ZM133.98,83.06c0,.08-.03.15-.09.2-.05.06-.12.08-.2.08h-.05v.05h.35v-.33h-.01ZM133.98,80.29v3.1h.41v-3.1h-.41ZM136.37,83.3c-.07-.03-.13-.06-.19-.11-.05-.05-.11-.11-.17-.18-.05-.05-.1-.12-.16-.19-.05-.08-.11-.16-.17-.24-.05-.07-.1-.14-.14-.19-.03-.06-.05-.08-.05-.09-.05-.06-.1-.13-.17-.2-.06-.06-.13-.11-.19-.13.15,0,.28-.05.39-.14.11-.08.2-.19.26-.31.06-.13.09-.26.09-.4s-.02-.26-.07-.36c-.05-.11-.11-.19-.19-.26-.08-.07-.18-.12-.3-.16-.11-.04-.24-.05-.37-.05h-.61c.02.05.03.08.04.11,0,.03.01.04.01.04h.28c.07,0,.14,0,.21.01.16,0,.29.06.39.18.1.11.15.27.15.47v.14s-.01.08-.02.11c-.04.13-.09.23-.16.3-.08.07-.16.12-.24.14-.09.02-.17.04-.25.04h-.2v.04c.07.01.14.04.2.09.06.06.12.13.17.21,0,.01.03.05.06.1.03.05.07.11.12.18.04.07.09.15.13.22.05.07.09.14.13.19.03.06.06.1.07.12.05.07.12.14.2.2.08.07.18.12.29.15.1.04.23.06.37.06h.31v-.05c-.08,0-.15-.01-.22-.04ZM134.67,83.34c-.07,0-.14-.02-.2-.08-.05-.05-.08-.12-.08-.2h-.01v.33h.35v-.05h-.06Z"/>
    <path class="cls-1" d="M137.51,80.29v.04h.06c.08,0,.14.03.2.08.06.06.09.12.09.2h.01v-.32h-.36ZM137.86,83.06c-.01.08-.04.15-.09.2-.06.06-.12.08-.2.08h-.06v.05h.36v-.33h-.01ZM137.86,80.29v3.1h.41v-3.1h-.41ZM138.25,80.29v.15h1.22v-.15h-1.22ZM138.25,81.78v.16h1.02v-.16h-1.02ZM138.55,83.34c-.08,0-.14-.02-.2-.08-.05-.05-.08-.12-.08-.2h-.02v.33h.36v-.05h-.06ZM139.34,80.24c-.06.01-.13.02-.2.03-.07.01-.14.02-.21.02l.54.05v-.13s-.07.02-.13.03ZM139.23,81.46v.05c0,.07-.03.14-.08.19-.05.05-.11.08-.19.08h0s.31,0,.31,0v-.33h-.04ZM138.96,81.93h0c.08.01.14.03.19.08.05.06.08.12.08.2v.05h.04v-.33h-.31ZM139.14,80.43h0c.08.01.15.04.21.09.05.06.08.13.08.21v.06h.04v-.36h-.33Z"/>
    <path class="cls-1" d="M143.93,80.99c-.14-.25-.33-.43-.58-.57-.25-.13-.53-.2-.86-.2s-.62.07-.86.2c-.25.14-.44.32-.58.57-.14.24-.2.52-.2.85s.06.61.2.85c.14.24.33.43.58.56.24.13.53.2.86.2s.61-.07.86-.2.44-.32.58-.56c.13-.24.2-.53.2-.85s-.07-.61-.2-.85ZM143.51,82.61c-.09.22-.23.39-.4.51-.18.12-.39.18-.62.18s-.44-.06-.62-.18c-.17-.12-.31-.29-.41-.51-.1-.22-.14-.48-.14-.77s.04-.55.14-.77c.1-.22.24-.39.41-.51.18-.12.38-.18.62-.18s.44.06.62.18c.17.12.31.29.4.51.1.22.15.47.15.77s-.05.55-.15.77Z"/>
    <path class="cls-1" d="M145.38,80.29v.04h.06c.08,0,.14.03.2.08.05.06.08.12.08.2h.02v-.32h-.36ZM145.72,83.06c0,.08-.03.15-.08.2-.06.06-.12.08-.2.08h-.06v.05h.36v-.33h-.02ZM145.72,80.29v3.1h.42v-3.1h-.42ZM148.11,83.3c-.06-.03-.12-.06-.18-.11s-.12-.11-.18-.18c-.04-.05-.09-.12-.15-.19-.06-.08-.11-.16-.17-.24-.06-.07-.1-.14-.14-.19-.04-.06-.06-.08-.06-.09-.04-.06-.1-.13-.16-.2-.07-.06-.13-.11-.2-.13.15,0,.28-.05.39-.14.11-.08.2-.19.26-.31.06-.13.1-.26.1-.4s-.03-.26-.08-.36c-.04-.11-.11-.19-.19-.26-.08-.07-.18-.12-.29-.16-.12-.04-.24-.05-.37-.05h-.61c.01.05.02.08.03.11.01.03.01.04.01.04h.28c.08,0,.15,0,.21.01.16,0,.29.06.39.18.1.11.15.27.15.47.01.05.01.1,0,.14,0,.04-.01.08-.02.11-.03.13-.09.23-.16.3-.07.07-.15.12-.24.14-.09.02-.17.04-.24.04h-.21v.04c.08.01.14.04.21.09.06.06.11.13.16.21.01.01.03.05.07.1.03.05.07.11.11.18.05.07.09.15.14.22.04.07.08.14.12.19.04.06.06.1.07.12.06.07.13.14.21.2.08.07.17.12.28.15.11.04.24.06.38.06h.31v-.05c-.09,0-.16-.01-.23-.04ZM146.42,83.34c-.08,0-.14-.02-.2-.08-.06-.05-.08-.12-.08-.2h-.02v.33h.35v-.05h-.05Z"/>
    <path class="cls-1" d="M149.47,83.06c-.01.09-.05.16-.11.21-.06.05-.13.07-.21.07h-.07v.05h.49v-.33h-.1ZM149.86,80.22h-.04l-.35,2.84-.04.33h.27l.02-.22h0v-.03l.19-1.94.06-.65-.11-.33ZM149.89,83.35s-.09-.02-.12-.06c-.03-.04-.05-.07-.05-.12h0v-.03h-.03v.25h.27v-.04h-.07ZM151.13,82.75l-1.27-2.53-.1.69.15.29,1.13,2.26.15-.6-.06-.11ZM152.39,80.22l-1.26,2.53-.19.39.1.32h.04c.01-.07.03-.13.05-.2.03-.08.06-.16.11-.27l.9-1.84.28-.57-.03-.36ZM152.33,83.14v.03s-.02.08-.05.12c-.03.04-.07.06-.12.06h-.07v.04h.27v-.25h-.03ZM152.78,83.06l-.35-2.84h-.04l-.27.7.02.23.19,1.99v.03l.02.22h.47l-.04-.33ZM153.11,83.34c-.08,0-.15-.02-.21-.07-.07-.05-.1-.12-.12-.21h-.09v.33h.49v-.05h-.07Z"/>
    <path class="cls-1" d="M154.89,83.34s-.07-.01-.11-.03c-.03-.02-.06-.05-.07-.09-.02-.04-.01-.08,0-.12,0,0,.01-.02.01-.04h-.27v.02c-.06.1-.12.16-.18.2-.07.04-.14.06-.21.06h-.04v.05h.91v-.05h-.04ZM155.67,80.22h-.04s-.01.06-.03.12c-.01.05-.03.1-.06.16-.02.06-.04.1-.06.14-.02.04-.03.07-.03.07l-1,2.35v.02s-.14.3-.14.3h.29l.11-.28s.01-.02.01-.04l.28-.68.06-.15.52-1.3.13-.33-.04-.38ZM154.89,82.23v.15h1.35v-.15h-1.35ZM156.9,83.06l-1.23-2.84-.15.56.06.15.5,1.3.05.15.27.68s.01.02,0,.03l.11.27h.52l-.13-.3ZM157.29,83.34c-.07,0-.14-.02-.21-.06-.08-.04-.14-.11-.18-.22h-.5s.01.02,0,.03c.03.08.02.14-.02.18-.04.05-.09.07-.15.07h-.04v.05h1.13v-.05h-.03Z"/>
    <path class="cls-1" d="M158.67,83.07c0,.08-.03.14-.08.19-.05.06-.12.08-.19.08h-.08v.05h.36v-.32h-.01ZM159.01,81.04v-.43l-.34-.39h-.04c.02.21.04.4.04.55v2.62h.35v-2.35ZM161.33,82.95l-.3-.31-2.36-2.42.04.51.3.31,2.36,2.41-.04-.5ZM159.29,83.34c-.08,0-.14-.02-.2-.08-.05-.05-.07-.11-.07-.19h-.02v.32h.37v-.05h-.08ZM160.67,80.29v.04h.08c.08,0,.14.03.19.08.06.05.08.11.09.19h.01v-.31h-.37ZM161.38,83.16c-.01-.08-.01-.18-.01-.28v-2.59h-.34v2.77l.34.39h.04c-.01-.1-.02-.2-.03-.29ZM161.35,80.29v.31h.02c0-.08.03-.14.08-.19.06-.05.12-.08.19-.08h.08v-.04h-.37Z"/>
    <path class="cls-1" d="M165.83,82.09c-.04.3-.11.54-.23.72-.11.17-.25.3-.42.37-.17.08-.37.12-.58.12-.24-.01-.45-.07-.63-.19-.18-.13-.32-.3-.42-.51-.09-.22-.14-.48-.14-.77s.05-.55.15-.77c.1-.22.24-.39.42-.5.18-.12.4-.18.66-.18s.48.06.67.19c.2.13.33.34.4.61h.04l-.06-.67c-.13-.08-.28-.15-.46-.2-.18-.06-.39-.09-.61-.09-.34,0-.64.07-.89.2-.25.14-.44.32-.58.56-.14.25-.21.53-.21.85s.07.62.21.86c.14.24.34.43.59.56s.53.2.86.2c.21,0,.39-.03.55-.08.16-.06.3-.14.41-.23.11-.1.21-.21.28-.33l.02-.72h-.03Z"/>
    <path class="cls-1" d="M167.22,80.29v.04h.06c.07,0,.14.03.2.08.05.06.08.12.08.2h.01v-.32h-.35ZM167.56,83.06c0,.08-.03.15-.08.2-.06.06-.13.08-.2.08h-.06v.05h.35v-.33h-.01ZM167.56,80.29v3.1h.41v-3.1h-.41ZM167.96,80.29v.15h1.22v-.15h-1.22ZM167.96,81.78v.16h1.02v-.16h-1.02ZM169.16,83.23h-1.2v.16h1.24l-.04-.16ZM169.4,82.61c-.04.12-.1.23-.17.33-.07.09-.15.16-.26.22-.1.05-.23.07-.38.07l-.16.16h.78l.24-.78h-.05ZM169.05,80.24c-.07.01-.13.02-.21.03-.07.01-.14.02-.2.02l.54.05v-.13s-.07.02-.13.03ZM168.94,81.46v.05c0,.07-.03.14-.08.19s-.11.08-.19.08h0s.31,0,.31,0v-.33h-.04ZM168.67,81.93h0c.08.01.14.03.19.08.05.06.08.12.08.2v.05h.04v-.33h-.31ZM168.81,80.43h0c.1.01.17.04.23.11.06.06.09.13.09.23v.07h.05v-.41h-.37Z"/>
  </g>
  <g>
    <path class="cls-4" d="M67.62,61.82c-.3-.04-.58-.08-.83-.13-.24-.05-.43-.1-.55-.15v.53l2.22-.2c-.26,0-.54-.02-.84-.05ZM66.24,61.87v.69h11.24v-.69h-11.24ZM66.24,62.51v1.9l.18-.02v-.23c0-.47.15-.85.44-1.15.29-.29.67-.44,1.14-.45v-.05h-1.76ZM70.76,73.27c-.01.32-.13.59-.35.81-.23.23-.5.34-.81.34h-.24v.18h1.46v-1.33h-.06ZM70.76,61.94v12.66h2.22v-12.66h-2.22ZM74.14,74.42c-.32,0-.58-.11-.81-.34-.22-.22-.34-.49-.35-.81h-.06v1.33h1.46v-.18h-.24ZM76.94,61.69c-.26.05-.53.09-.83.13-.3.03-.58.05-.84.05l2.21.2v-.53c-.11.05-.29.1-.54.15ZM75.72,62.51v.05c.47.01.85.16,1.14.45.29.3.44.68.44,1.15v.23l.18.02v-1.9h-1.76Z"/>
    <path class="cls-4" d="M79.53,61.89v.18h.24c.31,0,.58.11.81.34.22.22.34.49.35.8h.06v-1.32h-1.46ZM80.93,73.27c-.01.32-.13.59-.35.81-.23.23-.5.34-.81.34h-.24v.18h1.46v-1.33h-.06ZM80.93,61.89v12.71h2.22v-12.71h-2.22ZM82.96,67.94v.69h6.74v-.69h-6.74ZM83.09,61.89v1.32h.06c.01-.31.13-.58.35-.8.22-.23.49-.34.81-.34h.23v-.18h-1.45ZM84.31,74.42c-.32,0-.59-.11-.81-.34-.22-.22-.34-.49-.35-.81h-.06v1.33h1.45v-.18h-.23ZM88.14,61.89v.18h.24c.31,0,.58.11.81.34.23.22.35.49.35.8h.05v-1.32h-1.45ZM89.54,73.27c0,.32-.12.59-.35.81-.23.23-.5.34-.81.34h-.24v.18h1.45v-1.33h-.05ZM89.54,61.89v12.71h2.21v-12.71h-2.21ZM91.7,61.89v1.32h.05c.02-.31.13-.58.36-.8.22-.23.49-.34.81-.34h.23v-.18h-1.45ZM92.92,74.42c-.32,0-.59-.11-.81-.34-.23-.22-.34-.49-.36-.81h-.05v1.33h1.45v-.18h-.23Z"/>
    <path class="cls-4" d="M95.82,61.89v.18h.24c.31,0,.58.11.81.34.22.22.34.49.35.8h.05v-1.32h-1.45ZM97.22,73.27c-.01.32-.13.59-.35.81-.23.23-.5.34-.81.34h-.24v.18h1.45v-1.33h-.05ZM97.22,61.89v12.71h2.21v-12.71h-2.21ZM107.75,74.26c-.25-.1-.49-.25-.72-.45-.22-.2-.46-.46-.73-.77-.17-.21-.37-.46-.59-.76-.23-.31-.44-.61-.65-.91-.2-.3-.37-.56-.51-.77-.14-.22-.22-.33-.23-.34-.19-.29-.44-.58-.74-.88-.29-.3-.6-.5-.93-.61.65-.05,1.2-.24,1.65-.59.45-.34.79-.78,1.02-1.3s.34-1.04.34-1.58c0-.59-.1-1.1-.31-1.53-.22-.43-.51-.79-.89-1.06-.37-.28-.8-.49-1.29-.62-.49-.13-1.01-.2-1.56-.2h-2.41c.06.23.1.4.13.53.03.12.05.18.05.2h.34c.18,0,.4-.01.66-.01.25-.01.5-.01.73.01.61.02,1.12.25,1.52.69.4.43.62,1.07.65,1.92.02.18.01.36-.01.53-.03.17-.05.31-.08.41-.12.54-.31.95-.58,1.25-.26.3-.56.5-.9.61-.33.11-.66.17-.99.18-.17,0-.32,0-.45,0-.13,0-.21,0-.24,0v.18c.27.02.52.15.75.36.23.22.44.51.63.86.04.08.11.23.21.43.11.21.23.44.38.7.16.26.31.53.47.81.15.28.3.53.43.75.14.23.24.39.31.5.27.4.58.74.95,1,.36.27.79.47,1.28.6s1.05.2,1.68.2h1.5v-.18c-.32,0-.61-.05-.87-.16ZM100.6,74.42c-.32,0-.59-.11-.82-.34-.23-.22-.35-.49-.35-.81h-.05v1.33h1.43v-.18h-.21Z"/>
    <path class="cls-4" d="M109.51,61.89v.18h.24c.31,0,.58.11.81.34.22.22.34.49.35.8h.06v-1.32h-1.46ZM110.91,73.27c-.01.32-.13.59-.35.81-.23.23-.5.34-.81.34h-.24v.18h1.46v-1.33h-.06ZM110.91,61.89v12.71h2.22v-12.71h-2.22ZM113.07,61.89v.71h5.03v-.71h-5.03ZM113.07,67.99v.69h4.18v-.69h-4.18ZM117.94,73.89h-4.87v.71h5.18l-.31-.71ZM119.03,71.15c-.2.54-.44,1.03-.75,1.44-.3.42-.67.74-1.12.97-.45.22-.98.33-1.6.33l-.65.71h3.39l.91-3.45h-.18ZM117.07,66.47v.18c0,.37-.13.69-.38.94-.26.26-.57.39-.95.4v.04h1.51v-1.56h-.18ZM115.74,68.64v.04c.38,0,.69.13.95.38.25.26.38.57.38.95v.2h.18v-1.57h-1.51ZM117.56,61.71c-.26.05-.53.09-.83.12-.3.04-.58.06-.84.06l2.21.2v-.53c-.11.05-.29.1-.54.15ZM116.32,62.54v.04c.06,0,.12.01.18.02.41.03.73.19.98.44.3.3.44.68.44,1.14v.25h.18v-1.89h-1.78Z"/>
    <path class="cls-4" d="M129.34,69.65c-.23-.46-.59-.86-1.09-1.19l-3.5-2.59c-.34-.25-.61-.51-.81-.79-.2-.29-.29-.58-.26-.88.01-.53.22-.97.64-1.33s.98-.55,1.68-.55,1.28.19,1.72.55.66.85.66,1.47h.18l.14-2.14v-.17c-.09-.04-.27-.09-.52-.13-.16-.03-.34-.06-.53-.08-.1-.02-.22-.04-.33-.05-.32-.04-.64-.07-.96-.1-.31-.02-.58-.04-.81-.04-.74,0-1.37.14-1.9.42-.53.28-.94.66-1.23,1.14-.29.48-.45,1.01-.49,1.59-.03.55.07,1.09.3,1.6.24.52.64.96,1.19,1.32l3.29,2.49c.41.24.71.51.91.81.19.29.29.62.29.99,0,.62-.23,1.14-.68,1.54-.46.4-1.06.61-1.81.63-.67.02-1.24-.12-1.73-.4-.49-.29-.87-.68-1.12-1.18-.25-.51-.36-1.07-.31-1.68h-.16c-.12.25-.23.56-.31.93-.09.37-.13.73-.15,1.07-.01.35.02.64.09.88.23.23.54.43.93.59.39.17.81.29,1.28.37.47.08.92.11,1.37.11,1.32,0,2.36-.32,3.13-.98.77-.65,1.17-1.53,1.21-2.65.03-.58-.08-1.1-.31-1.57ZM126.82,61.82v.38h1.89l.02-.38h-1.91Z"/>
    <path class="cls-4" d="M132.27,61.89v.18h.23c.32,0,.59.11.81.34.22.22.34.49.35.8h.06v-1.32h-1.45ZM133.66,73.27c-.01.32-.13.59-.35.81-.22.23-.49.34-.81.34h-.23v.18h1.45v-1.33h-.06ZM133.66,61.89v12.71h2.22v-12.71h-2.22ZM135.7,67.94v.69h6.74v-.69h-6.74ZM135.83,61.89v1.32h.05c.01-.31.13-.58.35-.8.23-.23.5-.34.81-.34h.24v-.18h-1.45ZM137.04,74.42c-.31,0-.58-.11-.81-.34-.22-.22-.34-.49-.35-.81h-.05v1.33h1.45v-.18h-.24ZM140.87,61.89v.18h.24c.31,0,.59.11.82.34.23.22.34.49.34.8h.06v-1.32h-1.46ZM142.27,73.27c0,.32-.11.59-.34.81-.23.23-.51.34-.82.34h-.24v.18h1.46v-1.33h-.06ZM142.27,61.89v12.71h2.22v-12.71h-2.22ZM144.43,61.89v1.32h.06c.01-.31.13-.58.35-.8.23-.23.49-.34.81-.34h.24v-.18h-1.46ZM145.65,74.42c-.32,0-.58-.11-.81-.34-.22-.22-.34-.49-.35-.81h-.06v1.33h1.46v-.18h-.24Z"/>
    <path class="cls-4" d="M161.32,64.74c-.57-.99-1.38-1.76-2.42-2.3-1.05-.54-2.27-.81-3.66-.81s-2.63.27-3.67.81-1.85,1.31-2.42,2.3c-.57.99-.85,2.16-.85,3.5s.28,2.52.85,3.51c.57.99,1.38,1.76,2.42,2.3,1.04.54,2.26.8,3.67.8s2.61-.26,3.66-.8c1.04-.54,1.85-1.31,2.42-2.3s.85-2.16.85-3.51-.28-2.51-.85-3.5ZM159.17,71.39c-.37.88-.89,1.56-1.56,2.05-.67.48-1.46.72-2.37.72s-1.7-.24-2.37-.72c-.67-.49-1.2-1.17-1.56-2.05-.37-.89-.56-1.93-.56-3.15s.19-2.25.56-3.14c.36-.88.89-1.56,1.56-2.05.67-.48,1.46-.73,2.37-.73s1.7.25,2.37.73c.67.49,1.19,1.17,1.56,2.05.37.89.55,1.93.55,3.14s-.18,2.26-.55,3.15Z"/>
    <path class="cls-4" d="M164.41,61.89v.18h.23c.32,0,.59.11.81.34.23.22.34.49.36.8h.05v-1.32h-1.45ZM165.81,73.27c-.02.32-.13.59-.36.81-.22.23-.49.34-.81.34h-.23v.18h1.45v-1.33h-.05ZM165.81,61.89v12.71h2.21v-12.71h-2.21ZM167.97,61.89v1.32h.05c.01-.31.13-.58.36-.8.22-.23.49-.34.8-.34h.24v-.18h-1.45ZM172.83,73.89h-4.86v.71h5.17l-.31-.71ZM173.92,71.15c-.19.54-.44,1.03-.74,1.44-.3.42-.68.74-1.13.97-.45.22-.98.33-1.6.33l-.65.71h3.4l.9-3.45h-.18Z"/>
    <path class="cls-4" d="M176.01,61.89l.02.18h.22c.31,0,.58.11.81.34.23.22.35.49.35.8h.05v-1.32h-1.45ZM177.41,73.27c-.01.32-.13.59-.35.81-.23.23-.5.34-.81.34h-.24v.18h1.45v-1.33h-.05ZM177.41,61.89v12.71h2.21v-12.71h-2.21ZM188.43,64.87c-.56-.96-1.35-1.69-2.37-2.21-1.02-.51-2.22-.77-3.6-.77h-4.38v.69h4.23c.92,0,1.72.23,2.4.7.68.46,1.2,1.12,1.58,1.97.37.85.56,1.84.56,2.99s-.19,2.15-.56,3c-.38.85-.9,1.51-1.57,1.97-.67.47-1.48.7-2.41.7h-4.05l.02.69h4.18c1.38,0,2.58-.26,3.6-.78s1.81-1.26,2.37-2.21.84-2.07.84-3.37-.28-2.42-.84-3.37Z"/>
  </g>
  <g>
    <path class="cls-4" d="M87.53,55.17s-.02,0-.04,0c0,0,.01,0,.04,0Z"/>
    <path class="cls-4" d="M167.97,55.17s.04,0,.04,0c-.01,0-.02,0-.04,0Z"/>
    <path class="cls-4" d="M169.2,27.19s-8.48-.28-17.24,2.83c-4.32,1.54-12.68,5.04-23.54,12.7,0,0,7.6,6.69,18.31,9.39,0,0-9.17-1.86-18.98-8.86-9.81,7-18.98,8.86-18.98,8.86,10.72-2.7,18.31-9.39,18.31-9.39-10.86-7.66-19.22-11.16-23.54-12.7-8.76-3.11-17.24-2.83-17.24-2.83,0,0,6.07-.19,14.65,3.04,13.27,5,22.58,12.85,22.58,12.85-14.91,10.67-35.05,12.02-36.01,12.08,12.94-.75,20.6-2.32,27.68-4.53,7.09-2.21,12.54-5.03,12.54-5.03,0,0,5.46,2.82,12.54,5.03,7.08,2.21,14.74,3.78,27.68,4.53-.96-.06-21.1-1.41-36.01-12.08,0,0,9.31-7.85,22.58-12.85,8.58-3.24,14.65-3.04,14.65-3.04Z"/>
  </g>
  <path class="cls-4" d="M4.99,84.98L0,84.91l3.64-.08c.43.05.88.1,1.35.15Z"/>
  <path class="cls-4" d="M684,68.4v42.25H0v-25.74l4.99.07c.6.06,1.23.13,1.89.2,47.44,4.96,225.56,21.32,432.66,12.17,30.14-1.33,57.89-3.26,83.06-5.51,73.14-6.53,124.46-15.75,149.13-20.81,1.97-.4,3.77-.77,5.39-1.12,2.82-.6,5.11-1.11,6.88-1.51Z"/>
  <path class="cls-4" d="M6.88,85v.18c-.66-.07-1.29-.14-1.89-.2l1.89.02Z"/>
</svg>