<?xml version="1.0" encoding="UTF-8"?>
<svg id="Layer_1" data-name="Layer 1" xmlns="http://www.w3.org/2000/svg" viewBox="0 0 684 51.81">
  <defs>
    <style>
      .cls-1 {
        fill: #010101;
      }

      .cls-2 {
        fill: #4a2d8a;
      }
    </style>
  </defs>
  <path class="cls-1" d="M683.99,0v.69c-.06-.05-.12-.09-.18-.14-.02-.01-.03-.03-.05-.04l.23-.51Z"/>
  <path class="cls-2" d="M684,9.65v42.25H0v-25.74l4.99.07c.6.06,1.23.13,1.89.2,47.44,4.96,225.56,21.32,432.66,12.17,30.14-1.33,57.89-3.26,83.06-5.51,73.14-6.53,124.46-15.75,149.13-20.81,1.97-.4,3.77-.77,5.39-1.12,2.82-.6,5.11-1.11,6.88-1.51Z"/>
</svg>