<?xml version="1.0" encoding="UTF-8"?>
<svg id="Layer_1" data-name="Layer 1" xmlns="http://www.w3.org/2000/svg" viewBox="0 0 612 151.12">
  <defs>
    <style>
      .cls-1 {
        fill: #ba752b;
      }

      .cls-2, .cls-3 {
        fill: #fff;
      }

      .cls-3 {
        fill-rule: evenodd;
      }

      .cls-4 {
        fill: #4a2d8a;
      }
    </style>
  </defs>
  <rect class="cls-2" x="7.13" y="8.76" width="597.74" height="133.6"/>
  <circle class="cls-4" cx="250.98" cy="49.12" r="5.83"/>
  <circle class="cls-4" cx="250.98" cy="84.37" r="5.83"/>
  <circle class="cls-4" cx="250.98" cy="102" r="5.83"/>
  <circle class="cls-4" cx="250.98" cy="66.75" r="5.83"/>
  <g>
    <path class="cls-2" d="M253.62,50.1s-.07-.08-.08-.12c0-.03,0-.07,0-.14.05-.36.02-.71-.07-1.05-.16-.58-.47-1.05-.93-1.42-.08-.06-.15-.12-.23-.16-.32-.2-.66-.33-1.05-.4-.04,0-.07-.02-.11-.05-.03-.02-.05-.06-.06-.09-.04-.1-.01-.19.08-.26.05-.04.11-.05.17-.04.62.1,1.15.36,1.61.77.07.06.14.13.2.2.44.47.71,1.03.81,1.66.02.1.03.19.03.28.01.23,0,.45-.03.68,0,.07-.04.12-.08.15-.04.03-.09.05-.14.05-.05,0-.1-.02-.15-.05h0Z"/>
    <path class="cls-2" d="M250.54,50.68c.05.03.1.03.16.02.02,0,.08-.04.18-.1.04-.03.08-.05.13-.08.06-.03.1-.06.13-.07.16-.07.33-.07.5-.01.13.05.24.13.33.26.03.05.12.2.27.44.09.14.13.22.14.24.05.11.07.23.05.35-.02.15-.08.28-.18.38-.04.04-.11.09-.21.16-.11.07-.22.14-.33.2-.13.08-.22.13-.24.14-.13.06-.27.07-.41.04-.07-.01-.15-.05-.26-.11-.2-.11-.4-.23-.58-.36-.49-.36-.91-.78-1.27-1.27-.05-.08-.11-.15-.16-.23-.53-.85-.82-1.78-.85-2.78,0-.12,0-.22.01-.28.03-.15.11-.28.23-.38.03-.02.11-.07.24-.15.22-.14.37-.22.44-.27.07-.04.15-.07.24-.08.08,0,.16,0,.25.02.18.04.32.15.42.31.12.19.23.38.34.56.08.14.11.28.1.43-.01.1-.04.18-.09.27-.06.1-.14.18-.25.25-.07.04-.13.08-.2.12-.08.05-.13.09-.15.12-.04.06-.05.13-.02.21.19.59.5,1.11.93,1.55.05.05.09.08.11.1h0Z"/>
    <path class="cls-2" d="M252.73,49.96c-.07-.06-.09-.13-.08-.21,0-.03,0-.04,0-.04.06-.49-.06-.93-.34-1.31-.29-.38-.67-.62-1.15-.71-.04,0-.08-.02-.1-.03-.07-.04-.1-.1-.1-.17,0-.07.02-.12.06-.17.06-.06.14-.08.24-.06.35.07.67.2.94.4.36.27.62.61.78,1.03.13.35.17.72.12,1.09,0,.06-.02.11-.04.14-.03.05-.08.08-.15.09-.06.01-.12,0-.18-.05h0Z"/>
    <path class="cls-2" d="M250.9,48.54c-.06-.05-.09-.11-.09-.19,0-.04.02-.09.04-.12.03-.04.06-.07.11-.08.04-.01.09-.01.16,0,.06.01.12.03.17.04.31.11.54.3.71.56.05.08.09.17.12.25.08.21.1.42.07.65-.01.09-.06.16-.14.2-.04.02-.07.02-.11.02-.04,0-.07-.02-.1-.04-.07-.05-.1-.13-.09-.23.03-.28-.04-.53-.22-.73-.12-.14-.27-.23-.46-.27,0,0-.02,0-.06-.01-.04,0-.08-.02-.11-.05h0Z"/>
  </g>
  <path class="cls-3" d="M253.25,64.42h-4.54c-.43,0-.77.39-.77.86v2.8c0,.49.34.88.77.88h4.54c.42,0,.76-.39.76-.88v-2.8c0-.47-.34-.86-.76-.86ZM248.32,65.55l1.33,1.14-1.33,1.12v-2.26ZM253.25,68.52h-4.54c-.21,0-.39-.19-.39-.44l1.49-1.26.83.7c.1.09.21.14.34.14.12,0,.23-.05.33-.14l.83-.7,1.5,1.26c0,.25-.19.44-.39.44ZM253.64,67.81l-1.33-1.12,1.33-1.14v2.26ZM252.14,66.55l-.15.14-.78.67c-.07.05-.15.08-.23.08-.09,0-.17-.03-.23-.08l-2.43-2.08c0-.23.18-.42.39-.42h4.54c.2,0,.39.19.39.42l-1.5,1.27Z"/>
  <path class="cls-2" d="M253.14,82.22c-.06-.05-.12-.1-.18-.15-.54-.47-1.18-.72-1.92-.74h-.1c-.79.04-1.47.31-2.04.85-.06.05-.11.11-.17.17-.5.55-.75,1.22-.77,1.97v.1c.01.64.2,1.21.56,1.72.18.24.4.47.65.66.06.05.13.09.19.14.48.3,1.01.46,1.59.47h.08c.76-.01,1.4-.27,1.97-.74.2-.19.38-.4.54-.63.05-.07.09-.14.12-.21.24-.44.36-.9.37-1.4v-.1c-.02-.83-.32-1.53-.89-2.11ZM248.92,82.68c.29-.36.66-.63,1.09-.8h.01c-.21.29-.37.59-.48.94h-.01c-.21-.03-.4-.08-.61-.13h0ZM248.69,83s.01,0,.02,0c.24.06.47.13.72.17h0c-.07.35-.11.67-.12,1.02h-.01s-.97.01-.97.01h-.01c.03-.44.16-.83.37-1.2ZM248.69,85.72h-.02c-.2-.36-.32-.75-.35-1.16h.99c.01.34.05.66.12.98v.02c-.26.04-.51.1-.74.16ZM250.02,86.88c-.32-.13-.61-.32-.86-.55-.1-.09-.18-.19-.27-.29h0c.2-.06.42-.11.63-.14h.01c.06.2.14.4.23.56.07.14.16.28.25.4.01,0,.01.02.01.02h-.01ZM250.82,87s-.01.01-.02,0c-.13-.04-.26-.11-.35-.22-.12-.11-.22-.23-.31-.37-.09-.18-.18-.37-.24-.55t.01-.01c.08,0,.16-.01.24-.02.09-.01.18-.01.24-.02.15,0,.29-.02.42-.02t.01.01v1.2ZM250.82,85.43s0,.01-.01.01c-.34.01-.68.02-1.01.06-.01,0-.01,0-.02,0-.06-.3-.1-.61-.12-.93h1.16v.87ZM250.82,84.19s0,.01-.01.01h-1.14s-.01-.01-.01-.01c.02-.32.06-.65.13-.95,0-.01.01-.02.02-.02.31.03.62.06.94.07h.06s.01.01.01.01v.89ZM250.82,82.93s0,.01-.01.01c-.29-.01-.6-.03-.9-.06-.01,0-.02,0-.01-.02.06-.18.15-.36.23-.53.1-.15.21-.29.33-.41.1-.08.22-.16.35-.19h.01v1.2ZM251.98,81.88c.43.17.8.44,1.1.82h0c-.2.07-.41.1-.62.14h0c-.11-.35-.27-.67-.49-.96h.01ZM251.17,81.73h.01c.06.01.13.04.18.08.11.06.21.15.3.26.09.1.16.21.24.33.07.15.14.31.2.48h-.01c-.3.03-.61.05-.91.06t-.01-.01v-1.2ZM251.17,83.3h.01c.35-.01.68-.04,1.01-.07t.01.01c.07.3.12.63.13.95,0,0,0,.01-.01.01h-1.15v-.9ZM251.17,84.56h1.16c-.01.32-.06.63-.13.94-.01,0-.01.01-.01.01-.31-.03-.62-.06-.92-.06h-.09s-.01-.01-.01-.02v-.87ZM251.48,86.84c-.09.08-.18.13-.3.16h-.01v-1.2h0c.31,0,.62.02.91.06h.01c-.07.22-.16.41-.28.6-.1.16-.21.29-.33.38ZM253.08,86.06c-.29.35-.64.61-1.05.79-.04.02-.06.03-.06.04h-.01s-.01-.01,0-.02c.1-.13.19-.27.27-.42.09-.16.16-.35.22-.53,0-.01.01-.01.01-.01.21.04.43.09.62.13v.02ZM253.31,85.74h-.01c-.24-.07-.49-.14-.74-.18h0c.07-.34.11-.66.12-1h.98c-.02.42-.14.81-.35,1.18ZM253.66,84.2h-.96s-.02-.01-.02-.01c-.01-.33-.05-.67-.12-1h0c.25-.05.5-.1.74-.18,0,0,.01,0,.01.01.21.35.33.74.35,1.17h0Z"/>
  <path class="cls-3" d="M250.98,98.58c-1.48,0-2.69,1.21-2.69,2.69,0,.68.41,1.48.91,2.2.71,1.03,1.61,1.88,1.61,1.88.1.09.24.09.34,0,0,0,.89-.85,1.61-1.88.5-.72.9-1.52.9-2.2,0-1.48-1.2-2.69-2.68-2.69ZM250.98,102.61c-.74,0-1.34-.6-1.34-1.34s.6-1.34,1.34-1.34,1.34.6,1.34,1.34-.6,1.34-1.34,1.34Z"/>
  <g>
    <g>
      <path class="cls-1" d="M89.96,105.22v.05h.07c.09,0,.17.03.24.1.06.06.09.14.1.23h0v-.38h-.42ZM90.37,108.52c-.01.09-.04.17-.1.23-.07.07-.15.1-.24.1h-.07v.05h.42v-.38h0ZM90.37,105.22v3.68h.49v-3.68h-.49ZM90.81,106.98v.18h2.1v-.18h-2.1ZM90.84,105.22v.38h.02c0-.09.04-.17.1-.23.07-.07.14-.1.23-.1h.07v-.05h-.42ZM91.19,108.85c-.09,0-.16-.03-.23-.1-.06-.06-.1-.14-.1-.23h-.02v.38h.42v-.05h-.07ZM92.46,105.22v.05h.07c.09,0,.17.03.23.1.07.06.1.14.1.23h.02v-.38h-.42ZM92.86,108.52c0,.09-.03.17-.1.23-.06.07-.14.1-.23.1h-.07v.05h.42v-.38h-.02ZM92.86,105.22v3.68h.49v-3.68h-.49ZM93.34,105.22v.38h.01c0-.09.04-.17.11-.23.06-.07.14-.1.23-.1h.07v-.05h-.42ZM93.69,108.85c-.09,0-.17-.03-.23-.1-.07-.06-.1-.14-.11-.23h-.01v.38h.42v-.05h-.07Z"/>
      <path class="cls-1" d="M95.38,105.22v.05h.07c.09,0,.17.03.23.1.07.06.1.14.1.23h.02v-.38h-.42ZM95.78,108.52c0,.09-.03.17-.1.23-.06.07-.14.1-.23.1h-.07v.05h.42v-.38h-.02ZM95.78,105.22v3.68h.49v-3.68h-.49ZM96.26,105.22v.18h1.44v-.18h-1.44ZM96.26,107v.17h1.21v-.17h-1.21ZM97.68,108.72h-1.42v.18h1.47l-.05-.18ZM97.97,107.97c-.05.15-.12.28-.2.39-.08.12-.18.2-.31.26-.12.07-.27.1-.45.1l-.19.18h.92l.29-.93h-.06ZM97.55,105.16c-.08.02-.16.03-.24.04-.09.01-.17.02-.25.02l.64.05v-.15s-.08.03-.15.04ZM97.42,106.61v.06c0,.09-.03.16-.09.23-.06.06-.14.09-.23.1h0s.37.01.37.01v-.4h-.05ZM97.1,107.16h0c.09.01.17.05.23.11s.09.14.09.23v.06h.05v-.4h-.37ZM97.27,105.38v.02c.11,0,.2.04.27.11.08.07.11.17.11.27v.09h.05v-.49h-.43Z"/>
      <path class="cls-1" d="M100.23,108.85c-.05,0-.09-.02-.13-.04-.04-.03-.07-.07-.08-.11-.02-.05-.02-.11.01-.18h-.33l-.02.04c-.05.1-.11.17-.19.21-.08.05-.17.08-.25.08h-.05v.05h1.08v-.05h-.04ZM101.16,105.13h-.05s0,.08-.03.14c-.02.07-.05.13-.07.2-.03.07-.05.12-.08.17-.02.05-.03.07-.04.08l-1.19,2.8-.02.04-.14.32h.34l.14-.36h.01l.32-.81.07-.18.62-1.55.16-.39-.04-.46ZM100.23,107.53v.18h1.61v-.18h-1.61ZM102.62,108.52l-1.46-3.39-.18.68.06.17.6,1.55.07.18.31.81h.01l.13.35h.61l-.15-.35ZM103.08,108.85c-.08,0-.17-.03-.25-.08-.09-.05-.16-.13-.21-.25h-.6c.04.1.04.18-.02.24-.05.06-.11.09-.18.09h-.05v.05h1.35v-.05h-.04Z"/>
      <path class="cls-1" d="M104.37,105.22v.05h.07c.09,0,.17.03.24.1.06.06.09.14.1.23h.01v-.38h-.42ZM104.78,108.52c-.01.09-.04.17-.1.23-.07.07-.15.1-.24.1h-.07v.05h.42v-.38h-.01ZM104.78,105.22v3.68h.49v-3.68h-.49ZM105.25,105.22v.38h.02c0-.09.04-.17.1-.23.07-.07.14-.1.23-.1h.07v-.05h-.42ZM106.68,108.72h-1.43v.18h1.47l-.04-.18ZM106.97,107.97c-.06.15-.13.28-.21.39-.08.12-.18.2-.3.26-.13.07-.28.1-.46.1l-.19.18h.93l.28-.93h-.05Z"/>
      <path class="cls-1" d="M108.15,105.2c-.09-.02-.17-.03-.24-.04-.07-.02-.12-.03-.16-.04v.15l.64-.06c-.07,0-.15,0-.24-.01ZM107.75,105.21v.18h3.15v-.18h-3.15ZM107.75,105.37v.49h.05v-.08c0-.11.04-.2.11-.28.07-.07.17-.11.28-.11v-.02h-.44ZM109.08,108.52c0,.09-.03.17-.1.23-.06.07-.14.1-.23.1h-.07v.05h.42v-.38h-.02ZM109.08,105.23v3.67h.49v-3.67h-.49ZM109.91,108.85c-.09,0-.17-.03-.23-.1-.07-.06-.1-.14-.11-.23h-.01v.38h.42v-.05h-.07ZM110.75,105.16c-.08.01-.16.02-.24.04-.09.01-.17.01-.25.01l.64.06v-.15s-.08.02-.15.04ZM110.47,105.37v.02c.11,0,.2.04.27.11.08.08.11.17.11.28v.08h.05v-.49h-.43Z"/>
      <path class="cls-1" d="M112.33,105.22v.05h.07c.09,0,.17.03.23.1.07.06.1.14.11.23h.01v-.38h-.42ZM112.74,108.52c-.01.09-.04.17-.11.23-.06.07-.14.1-.23.1h-.07v.05h.42v-.38h-.01ZM112.74,105.22v3.68h.49v-3.68h-.49ZM113.17,106.98v.18h2.11v-.18h-2.11ZM113.21,105.22v.38h.02c0-.09.03-.17.1-.23.06-.07.14-.1.23-.1h.07v-.05h-.42ZM113.56,108.85c-.09,0-.17-.03-.23-.1-.07-.06-.1-.14-.1-.23h-.02v.38h.42v-.05h-.07ZM114.83,105.22v.05h.06c.1,0,.17.03.24.1.07.06.1.14.1.23h.02v-.38h-.42ZM115.23,108.52c0,.09-.03.17-.1.23-.07.07-.14.1-.24.1h-.06v.05h.42v-.38h-.02ZM115.23,105.22v3.68h.49v-3.68h-.49ZM115.7,105.22v.38h.02c0-.09.04-.17.1-.23.07-.07.15-.1.24-.1h.07v-.05h-.43ZM116.06,108.85c-.09,0-.17-.03-.24-.1-.06-.06-.1-.14-.1-.23h-.02v.38h.43v-.05h-.07Z"/>
      <path class="cls-1" d="M120.78,108.85s-.09-.02-.13-.04c-.04-.03-.07-.07-.08-.11-.01-.04-.02-.08,0-.13v-.05s-.31,0-.31,0c-.01.02-.02.04-.04.06-.05.09-.11.15-.18.19-.08.05-.17.08-.25.08h-.04v.05h1.08v-.05h-.05ZM121.71,105.13h-.05s-.01.08-.03.14c-.02.07-.04.13-.07.2s-.05.12-.07.17c-.03.05-.04.07-.04.08l-1.23,2.86-.13.3h.35l.13-.31v-.05s.34-.81.34-.81l.07-.18.62-1.56.15-.38-.04-.46ZM120.78,107.53v.18h1.61v-.18h-1.61ZM123.2,108.57l-1.49-3.44-.17.68.06.16.6,1.56.07.18.3.81h.01l.13.35h.62l-.13-.3ZM123.63,108.85c-.08,0-.16-.03-.25-.08-.08-.04-.14-.11-.18-.2-.02-.02-.02-.03-.03-.05h-.6c.04.1.04.18-.01.24-.06.06-.12.09-.19.09h-.04v.05h1.34v-.05h-.04Z"/>
      <path class="cls-1" d="M125.27,108.53c0,.08-.03.16-.09.22-.07.07-.14.1-.23.1h-.1v.05h.44v-.37h-.02ZM125.27,105.14h-.05c.03.25.05.47.05.66v3.1h.41v-3.3l-.41-.46ZM128.43,108.38l-.36-.37-2.8-2.87.06.6.35.36,2.8,2.87-.05-.59ZM126,108.85c-.08,0-.16-.03-.22-.1-.07-.06-.1-.14-.1-.22h-.01v.37h.43v-.05h-.1ZM127.65,105.22v.05h.1c.09,0,.16.03.23.09.06.06.09.14.09.23h.01v-.37h-.43ZM128.49,108.63c-.01-.1-.01-.21-.01-.33v-3.08h-.41v3.29l.41.46h.05c-.02-.12-.03-.23-.04-.34ZM128.46,105.22v.37h.02c0-.09.03-.17.1-.23.06-.06.14-.09.22-.09h.1v-.05h-.44Z"/>
      <path class="cls-1" d="M130.38,105.22v.05h.07c.09,0,.17.03.24.1.06.06.1.14.1.23h.01v-.38h-.42ZM130.79,108.52c-.01.09-.04.17-.1.23-.07.07-.15.1-.24.1h-.07v.05h.42v-.38h-.01ZM130.79,105.22v3.68h.49v-3.68h-.49ZM133.9,106.08c-.16-.27-.39-.49-.67-.64-.29-.15-.63-.22-1.02-.22h-1.23v.18h1.21c.28,0,.53.06.74.2.21.14.37.33.49.58.12.25.17.54.17.88s-.05.63-.17.88c-.12.25-.28.44-.49.58-.21.13-.46.2-.74.2h-1.15v.18h1.17c.39,0,.73-.08,1.02-.23.28-.15.51-.37.67-.64.16-.28.24-.6.24-.97s-.08-.7-.24-.98Z"/>
      <path class="cls-1" d="M138.14,105.22v.05h.06c.1,0,.17.03.24.1.07.06.1.14.1.23h.02v-.38h-.42ZM138.54,108.52c0,.09-.04.17-.1.23-.07.07-.14.1-.24.1h-.06v.05h.42v-.38h-.02ZM138.54,105.22v3.68h.49v-3.68h-.49ZM140.66,105.69c-.09-.15-.22-.27-.39-.35s-.38-.12-.63-.12h-.68c.02.06.04.12.05.18h.54c.22,0,.39.07.51.21.13.14.19.33.19.57v.17l-.03.15c-.04.14-.1.25-.19.34-.08.08-.17.14-.26.18-.09.03-.18.05-.27.06-.08.01-.18,0-.29-.01v.06c.14.08.28.12.43.14.15.01.29,0,.43-.05.14-.04.26-.11.37-.2.11-.09.2-.2.26-.34.07-.13.1-.28.09-.45,0-.2-.04-.38-.13-.54ZM139.37,108.85c-.09,0-.17-.03-.24-.1-.06-.06-.1-.14-.1-.23h-.02v.38h.43v-.05h-.07Z"/>
      <path class="cls-1" d="M142.34,105.22v.05h.06c.09,0,.17.03.24.1.07.06.1.14.1.23h.02v-.38h-.42ZM142.74,108.52c0,.09-.04.17-.1.23-.07.07-.15.1-.24.1h-.06v.05h.42v-.38h-.02ZM142.74,105.22v3.68h.49v-3.68h-.49ZM143.21,105.22v.18h1.45v-.18h-1.45ZM143.21,107v.17h1.21v-.17h-1.21ZM144.64,108.72h-1.43v.18h1.47l-.04-.18ZM144.93,107.97c-.06.15-.12.28-.21.39-.08.12-.18.2-.3.26-.12.07-.28.1-.46.1l-.19.18h.93l.28-.93h-.05ZM144.5,105.16c-.07.02-.15.03-.24.04-.08.01-.16.02-.24.02l.64.05v-.15s-.08.03-.16.04ZM144.37,106.61v.06c0,.09-.03.16-.09.23-.06.06-.13.09-.22.1h0s.36.01.36.01v-.4h-.05ZM144.06,107.16h0c.09.01.16.05.22.11s.09.14.09.23v.06h.05v-.4h-.36ZM144.22,105.38v.02c.12,0,.21.04.28.11s.11.17.11.27v.09h.05v-.49h-.44Z"/>
      <path class="cls-1" d="M146.48,105.22v.05h.07c.09,0,.17.03.24.1.06.06.09.14.1.23h0v-.38h-.42ZM146.89,108.52c-.01.09-.04.17-.1.23-.07.07-.15.1-.24.1h-.07v.05h.42v-.38h0ZM146.89,105.22v3.68h.49v-3.68h-.49ZM149.73,108.8c-.08-.04-.16-.08-.22-.14-.07-.06-.14-.13-.21-.21-.05-.06-.11-.14-.18-.23-.07-.09-.14-.18-.21-.27-.06-.1-.12-.18-.16-.24-.05-.06-.07-.1-.07-.1-.05-.08-.12-.16-.2-.24-.07-.08-.15-.13-.23-.16.18-.01.34-.06.47-.16.13-.1.23-.22.3-.37.08-.16.12-.31.12-.47,0-.17-.03-.31-.09-.44-.06-.12-.13-.22-.23-.3-.09-.09-.21-.15-.35-.19-.13-.04-.28-.06-.44-.06h-.72c.02.06.03.1.04.13,0,.03,0,.05,0,.05h.33c.09,0,.18,0,.26.01.19,0,.34.07.46.21.11.13.17.32.18.56v.17s-.02.09-.03.13c-.04.16-.1.28-.19.36-.09.08-.18.13-.28.16-.11.03-.21.04-.3.05h-.24v.05c.09,0,.17.04.24.11.08.07.14.15.2.24.01.02.04.06.08.12.04.06.08.14.13.22.06.08.11.17.16.26.06.08.11.16.15.22.05.07.07.12.09.14.06.09.15.17.24.25.1.07.21.13.34.17.13.05.28.07.44.07h.37v-.05c-.1,0-.18-.02-.26-.05ZM147.71,108.85c-.09,0-.17-.03-.23-.1-.07-.06-.1-.14-.1-.23h-.02v.38h.42v-.05h-.07Z"/>
      <path class="cls-1" d="M151.09,105.22v.05h.07c.09,0,.17.03.23.1.07.06.1.14.1.23h.02v-.38h-.42ZM151.49,108.52c0,.09-.03.17-.1.23-.06.07-.14.1-.23.1h-.07v.05h.42v-.38h-.02ZM151.49,105.22v3.68h.49v-3.68h-.49ZM151.97,105.22v.18h1.44v-.18h-1.44ZM151.97,107v.17h1.21v-.17h-1.21ZM152.32,108.85c-.09,0-.17-.03-.23-.1-.07-.06-.1-.14-.11-.23h-.01v.38h.42v-.05h-.07ZM153.26,105.16c-.08.02-.16.03-.24.04-.09.01-.17.02-.25.02l.64.05v-.15s-.08.03-.15.04ZM153.12,106.61v.06c0,.09-.03.16-.08.23-.06.06-.14.09-.23.1h0s.37.01.37.01v-.4h-.06ZM152.81,107.16h0c.09.01.17.05.23.11.05.06.08.14.08.23v.06h.06v-.4h-.37ZM153.02,105.38v.02c.1,0,.18.03.24.1.07.06.1.14.1.24v.08h.05v-.44h-.39Z"/>
      <path class="cls-1" d="M158.71,106.05c-.17-.29-.4-.51-.69-.67-.29-.16-.63-.24-1.03-.24s-.72.08-1.02.24c-.29.16-.52.38-.68.67-.16.29-.24.62-.24,1.01s.08.72.24,1.01c.16.29.39.51.68.67.3.16.64.23,1.02.23.4,0,.74-.07,1.03-.23.29-.16.52-.38.69-.67.16-.29.24-.63.24-1.01s-.08-.72-.24-1.01ZM158.21,107.97c-.11.26-.27.47-.48.61s-.45.22-.74.22c-.27,0-.52-.08-.73-.22-.2-.14-.37-.35-.48-.61-.12-.26-.18-.56-.18-.91s.06-.66.18-.92c.11-.26.28-.46.48-.6.21-.15.46-.22.73-.22.29,0,.53.07.74.22.21.14.37.34.48.6.12.26.18.57.18.92s-.06.65-.18.91Z"/>
      <path class="cls-1" d="M160.44,105.22v.05h.06c.09,0,.17.03.24.1.06.06.1.14.1.23h.02v-.38h-.42ZM160.84,108.52c0,.09-.04.17-.1.23-.07.07-.15.1-.24.1h-.06v.05h.42v-.38h-.02ZM160.84,105.22v3.68h.49v-3.68h-.49ZM163.68,108.8c-.08-.04-.15-.08-.22-.14-.07-.06-.14-.13-.21-.21-.05-.06-.11-.14-.18-.23-.07-.09-.14-.18-.2-.27-.07-.1-.13-.18-.17-.24s-.06-.1-.06-.1c-.06-.08-.13-.16-.21-.24-.07-.08-.15-.13-.23-.16.18-.01.34-.06.47-.16.13-.1.23-.22.31-.37.07-.16.11-.31.11-.47,0-.17-.03-.31-.09-.44-.05-.12-.13-.22-.23-.3-.09-.09-.21-.15-.35-.19-.13-.04-.28-.06-.44-.06h-.72c.02.06.03.1.04.13.01.03.01.05.01.05h.34c.08,0,.17,0,.25.01.19,0,.34.07.46.21.12.13.18.32.18.56v.17s-.02.09-.03.13c-.04.16-.1.28-.19.36-.08.08-.18.13-.28.16-.11.03-.2.04-.29.05h-.25v.05c.09,0,.17.04.25.11.07.07.14.15.2.24.01.02.03.06.07.12s.08.14.14.22c.05.08.1.17.16.26.05.08.1.16.14.22.05.07.08.12.09.14.07.09.15.17.24.25.1.07.21.13.34.17.13.05.28.07.45.07h.37v-.05c-.1,0-.19-.02-.27-.05ZM161.67,108.85c-.09,0-.17-.03-.24-.1-.07-.06-.1-.14-.1-.23h-.02v.38h.42v-.05h-.06Z"/>
      <path class="cls-1" d="M165.29,108.52c-.01.1-.05.18-.13.24-.07.06-.16.09-.25.09h-.09v.05h.59v-.38h-.12ZM165.75,105.14h-.05l-.4,3.38h-.01l-.04.38h.31l.03-.27v-.02h0s.22-2.32.22-2.32l.07-.76-.13-.39ZM165.79,108.85c-.05,0-.1-.02-.14-.07s-.06-.1-.06-.15v-.02h0s-.04-.01-.04-.01v.3h.32v-.05h-.08ZM167.27,108.15l-1.52-3.01-.11.81.17.34,1.35,2.69.17-.71-.06-.12ZM168.76,105.14l-1.49,3.01-.23.46.12.37h.05c.01-.07.02-.15.05-.24.03-.08.08-.19.14-.31l1.06-2.16.34-.7-.04-.43ZM168.69,108.6h0v.05s-.02.09-.06.13c-.04.05-.09.07-.15.07h-.08v.05h.32v-.3h-.03ZM169.22,108.53h0s-.42-3.39-.42-3.39h-.04l-.33.83.03.3.23,2.33h0v.05l.02.25h.56l-.05-.37ZM169.61,108.85c-.09,0-.18-.03-.25-.09-.07-.06-.12-.13-.14-.23h0s-.11-.01-.11-.01v.38h.58v-.05h-.08Z"/>
      <path class="cls-1" d="M171.72,108.85s-.08-.02-.12-.04c-.04-.03-.07-.07-.09-.11-.01-.04-.01-.1.01-.16v-.02h-.32l-.02.04c-.05.1-.11.17-.19.21-.09.05-.17.08-.25.08h-.05v.05h1.08v-.05h-.05ZM172.66,105.13h-.05s0,.08-.03.14c-.02.07-.05.13-.07.2-.03.07-.05.12-.08.17-.02.05-.03.07-.04.08l-1.19,2.8-.02.04-.14.32h.34l.14-.34v-.02l.33-.81.07-.18.62-1.55.16-.39-.04-.46ZM171.72,107.53v.18h1.61v-.18h-1.61ZM174.14,108.56l-1.48-3.43-.18.68.06.17.6,1.55.07.18.31.81h.01l.13.35h.61l-.13-.31ZM174.58,108.85c-.08,0-.17-.03-.25-.08-.08-.04-.14-.11-.19-.21-.02,0-.02-.03-.03-.04h-.59c.04.1.04.18-.02.24-.05.06-.11.09-.18.09h-.05v.05h1.35v-.05h-.04Z"/>
      <path class="cls-1" d="M176.22,108.53c0,.08-.03.16-.1.22-.06.07-.13.1-.22.1h-.1v.05h.43v-.37h-.01ZM176.62,106.1v-.5l-.4-.46h-.05c.03.25.05.47.05.66v3.1h.41v-2.8ZM179.38,108.38l-.36-.37-2.8-2.87.05.6.35.36,2.81,2.87-.05-.59ZM176.95,108.85c-.09,0-.16-.03-.23-.1-.06-.06-.09-.14-.09-.22h-.02v.37h.44v-.05h-.1ZM178.59,105.22v.05h.1c.09,0,.17.03.23.09s.1.14.1.23h.01v-.37h-.44ZM179.44,108.63c-.01-.1-.02-.21-.02-.33v-3.08h-.4v3.29l.41.46h.05c-.02-.12-.03-.23-.04-.34ZM179.41,105.22v.37h.01c.01-.09.04-.17.1-.23.07-.06.14-.09.23-.09h.1v-.05h-.44Z"/>
      <path class="cls-1" d="M184.72,107.36c-.04.36-.13.64-.26.85-.14.21-.31.36-.51.45-.2.09-.43.14-.69.14-.28-.01-.53-.09-.74-.23-.22-.15-.38-.35-.5-.61s-.17-.56-.17-.91.05-.66.17-.92c.12-.25.29-.45.51-.6.22-.14.48-.21.78-.21s.57.08.8.24c.23.15.39.39.47.71h.05l-.07-.79c-.16-.1-.34-.18-.55-.24-.22-.06-.46-.1-.72-.1-.41,0-.76.08-1.06.24-.29.16-.52.38-.69.67-.16.28-.24.62-.24,1,0,.4.08.74.25,1.02.16.29.39.51.69.66.29.16.63.24,1.02.24.25,0,.47-.03.66-.1.19-.06.35-.15.49-.27.13-.11.24-.24.33-.38l.03-.86h-.05Z"/>
      <path class="cls-1" d="M186.38,105.22v.05h.07c.09,0,.17.03.23.1.07.06.1.14.1.23h.02v-.38h-.42ZM186.78,108.52c0,.09-.04.17-.1.23-.07.07-.14.1-.23.1h-.07v.05h.42v-.38h-.02ZM186.78,105.22v3.68h.49v-3.68h-.49ZM187.26,105.22v.18h1.44v-.18h-1.44ZM187.26,107v.17h1.21v-.17h-1.21ZM188.68,108.72h-1.42v.18h1.46l-.04-.18ZM188.97,107.97c-.05.15-.12.28-.2.39-.08.12-.19.2-.31.26-.12.07-.27.1-.46.1l-.19.18h.93l.28-.93h-.05ZM188.55,105.16c-.08.02-.16.03-.24.04-.09.01-.17.02-.25.02l.64.05v-.15s-.08.03-.15.04ZM188.41,106.61v.06c0,.09-.03.16-.09.23-.06.06-.13.09-.22.1h0s.37.01.37.01v-.4h-.06ZM188.1,107.16h0c.09.01.16.05.22.11.06.06.09.14.09.23v.06h.06v-.4h-.37ZM188.27,105.38v.02c.11,0,.2.04.27.11.07.07.11.17.11.27v.09h.05v-.49h-.43Z"/>
    </g>
    <g>
      <path class="cls-4" d="M68.06,83.27c-.36-.04-.69-.09-.98-.15-.3-.05-.52-.11-.66-.17v.63l2.63-.24c-.3,0-.63-.02-.99-.07ZM66.42,83.34v.82h13.35v-.82h-13.35ZM66.42,84.09v2.27l.22-.02v-.28c0-.56.17-1.02.51-1.36.35-.35.8-.53,1.36-.54v-.07h-2.09ZM71.79,96.89c-.01.37-.15.69-.42.96-.27.26-.58.4-.96.4h-.28v.21h1.73v-1.57h-.07ZM71.79,83.43v15.03h2.63v-15.03h-2.63ZM75.8,98.25c-.37,0-.69-.14-.96-.4-.26-.27-.4-.59-.42-.96h-.06v1.57h1.72v-.21h-.28ZM79.13,83.12c-.31.06-.63.11-.99.15-.35.05-.68.07-1,.07l2.63.24v-.63c-.13.06-.34.12-.64.17ZM77.68,84.09v.07c.56.01,1.01.19,1.36.54.34.34.52.8.52,1.36v.28l.21.02v-2.27h-2.09Z"/>
      <path class="cls-4" d="M82.21,83.36v.22h.28c.37,0,.69.13.96.4.27.26.41.58.42.96h.07v-1.58h-1.73ZM83.87,96.89c-.01.37-.15.69-.42.96-.27.26-.59.4-.96.4h-.28v.21h1.73v-1.57h-.07ZM83.87,83.36v15.1h2.63v-15.1h-2.63ZM86.29,90.54v.82h8v-.82h-8ZM86.44,83.36v1.58h.06c.02-.38.16-.7.42-.96s.59-.4.96-.4h.28v-.22h-1.72ZM87.88,98.25c-.37,0-.69-.14-.96-.4-.26-.27-.4-.59-.42-.96h-.06v1.57h1.72v-.21h-.28ZM92.44,83.36v.22h.28c.37,0,.69.13.97.4.27.26.41.58.41.96h.06v-1.58h-1.72ZM94.1,96.89c0,.37-.14.69-.41.96-.28.26-.6.4-.97.4h-.28v.21h1.72v-1.57h-.06ZM94.1,83.36v15.1h2.63v-15.1h-2.63ZM96.66,83.36v1.58h.07c.01-.38.15-.7.42-.96.26-.27.58-.4.96-.4h.28v-.22h-1.73ZM98.11,98.25c-.38,0-.7-.14-.96-.4s-.41-.59-.42-.96h-.07v1.57h1.73v-.21h-.28Z"/>
      <path class="cls-4" d="M101.56,83.36v.22h.28c.37,0,.69.13.96.4.27.26.41.58.42.96h.07v-1.58h-1.73ZM103.22,96.89c-.01.37-.15.69-.42.96-.27.26-.59.4-.96.4h-.28v.21h1.73v-1.57h-.07ZM103.22,83.36v15.1h2.63v-15.1h-2.63ZM115.73,98.06c-.3-.12-.58-.3-.85-.54-.27-.23-.56-.54-.87-.91-.2-.25-.44-.55-.7-.91-.27-.36-.53-.72-.77-1.08-.24-.36-.45-.66-.61-.92-.17-.25-.26-.38-.27-.39-.23-.35-.53-.7-.88-1.05-.35-.35-.72-.59-1.11-.72.78-.06,1.43-.29,1.96-.7.54-.41.94-.93,1.21-1.55.27-.62.41-1.24.41-1.87,0-.71-.12-1.32-.38-1.83-.25-.51-.6-.93-1.04-1.26-.45-.33-.96-.57-1.54-.73-.59-.16-1.2-.24-1.85-.24h-2.87c.07.27.13.48.16.63.04.14.06.22.06.23h.4c.22,0,.48,0,.78-.01.31,0,.59,0,.87.01.73.03,1.33.31,1.81.82.47.52.73,1.28.78,2.29.01.22,0,.42-.03.63-.02.2-.05.36-.08.49-.15.63-.38,1.13-.69,1.48-.32.35-.67.59-1.07.72-.4.13-.79.2-1.18.22-.2.01-.38.02-.54.01-.15-.01-.25-.01-.28-.01v.21c.32.03.62.18.89.43.27.26.52.6.75,1.02.05.1.13.27.25.52.12.24.28.52.46.83.17.31.36.63.55.96.18.33.35.63.51.89.16.27.28.47.37.6.32.47.69.87,1.12,1.18.43.32.94.56,1.52.71.58.16,1.25.24,2,.24h1.79v-.21c-.39,0-.74-.07-1.04-.19ZM107.23,98.25c-.37,0-.69-.14-.97-.4-.27-.27-.41-.59-.41-.96h-.06v1.57h1.7v-.21h-.26Z"/>
      <path class="cls-4" d="M117.83,83.36v.22h.28c.37,0,.69.13.96.4s.4.58.42.96h.06v-1.58h-1.72ZM119.49,96.89c-.02.37-.16.69-.42.96-.27.26-.59.4-.96.4h-.28v.21h1.72v-1.57h-.06ZM119.49,83.36v15.1h2.63v-15.1h-2.63ZM122.05,83.36v.84h5.98v-.84h-5.98ZM122.05,90.61v.82h4.96v-.82h-4.96ZM127.83,97.62h-5.78v.84h6.15l-.37-.84ZM129.13,94.36c-.23.65-.53,1.22-.89,1.72-.36.49-.8.87-1.33,1.14-.54.27-1.17.4-1.9.4l-.78.84h4.04l1.07-4.1h-.21ZM126.8,88.8v.21c0,.45-.15.82-.45,1.12-.31.31-.68.46-1.13.48v.04h1.79v-1.85h-.21ZM125.22,91.39v.04c.45,0,.82.15,1.13.45.3.3.45.68.45,1.12v.24h.21v-1.85h-1.79ZM127.38,83.15c-.3.05-.63.1-.98.15-.35.04-.69.06-1,.06l2.63.24v-.63c-.13.06-.35.12-.65.18ZM125.91,84.14v.04c.05,0,.11.01.16.02.51.04.91.21,1.22.53.35.35.52.8.52,1.35v.3h.22v-2.24h-2.12Z"/>
      <path class="cls-4" d="M141.38,92.58c-.27-.55-.7-1.02-1.29-1.41l-4.17-3.09c-.4-.28-.72-.6-.96-.93-.23-.34-.34-.69-.31-1.05.01-.62.27-1.14.77-1.57.49-.44,1.16-.65,1.99-.65s1.51.21,2.04.65c.52.43.79,1.01.79,1.74h.21l.17-2.54v-.2c-.11-.05-.32-.11-.62-.16-.19-.03-.4-.06-.63-.1-.12-.01-.25-.03-.39-.05-.39-.05-.76-.09-1.14-.12-.37-.03-.69-.04-.97-.04-.87,0-1.63.16-2.25.49-.63.34-1.11.79-1.46,1.35-.34.57-.54,1.2-.58,1.89-.04.66.08,1.3.36,1.91s.75,1.13,1.41,1.56l3.9,2.96c.49.29.85.61,1.08.96.23.35.35.74.35,1.17,0,.75-.27,1.36-.81,1.84-.54.47-1.26.72-2.15.75-.79.02-1.48-.14-2.06-.48-.58-.34-1.02-.81-1.33-1.4-.3-.6-.42-1.27-.36-2h-.2c-.14.3-.26.67-.36,1.11-.1.44-.16.86-.18,1.27-.01.41.03.76.11,1.05.28.27.64.51,1.1.7.46.2.97.34,1.52.43.56.1,1.1.14,1.63.14,1.57,0,2.81-.39,3.72-1.16.92-.78,1.39-1.83,1.44-3.15.03-.69-.1-1.31-.37-1.87ZM138.38,83.27v.46h2.25l.02-.46h-2.27Z"/>
      <path class="cls-4" d="M144.85,83.36v.22h.28c.38,0,.7.13.96.4.27.26.41.58.42.96h.07v-1.58h-1.73ZM146.51,96.89c-.01.37-.15.69-.42.96-.26.26-.58.4-.96.4h-.28v.21h1.73v-1.57h-.07ZM146.51,83.36v15.1h2.64v-15.1h-2.64ZM148.93,90.54v.82h8v-.82h-8ZM149.08,83.36v1.58h.07c.01-.38.15-.7.42-.96.26-.27.58-.4.96-.4h.28v-.22h-1.73ZM150.53,98.25c-.38,0-.7-.14-.96-.4s-.41-.59-.42-.96h-.07v1.57h1.73v-.21h-.28ZM155.08,83.36v.22h.28c.37,0,.7.13.97.4.27.26.41.58.41.96h.06v-1.58h-1.72ZM156.74,96.89c0,.37-.14.69-.41.96-.27.26-.6.4-.97.4h-.28v.21h1.72v-1.57h-.06ZM156.74,83.36v15.1h2.63v-15.1h-2.63ZM159.31,83.36v1.58h.06c.02-.38.16-.7.42-.96s.59-.4.96-.4h.28v-.22h-1.72ZM160.75,98.25c-.37,0-.69-.14-.96-.4-.26-.27-.4-.59-.42-.96h-.06v1.57h1.72v-.21h-.28Z"/>
      <path class="cls-4" d="M179.37,86.75c-.68-1.18-1.64-2.09-2.88-2.73-1.25-.64-2.69-.96-4.35-.96s-3.12.32-4.36.96c-1.23.64-2.19,1.55-2.86,2.73-.68,1.18-1.02,2.56-1.02,4.16s.34,2.99,1.02,4.16c.67,1.18,1.63,2.09,2.86,2.73,1.24.64,2.69.96,4.36.96s3.1-.32,4.35-.96c1.24-.64,2.2-1.55,2.88-2.73.67-1.17,1.01-2.56,1.01-4.16s-.34-2.98-1.01-4.16ZM176.81,94.64c-.44,1.05-1.06,1.87-1.85,2.44-.8.58-1.74.86-2.82.86s-2.02-.28-2.81-.86c-.8-.57-1.42-1.39-1.86-2.44s-.66-2.29-.66-3.73.22-2.68.66-3.73c.44-1.05,1.06-1.86,1.86-2.44.79-.57,1.73-.86,2.81-.86s2.02.29,2.82.86c.79.58,1.41,1.39,1.85,2.44.44,1.05.66,2.29.66,3.73s-.22,2.68-.66,3.73Z"/>
      <path class="cls-4" d="M183.04,83.36v.22h.28c.37,0,.69.13.96.4s.4.58.42.96h.06v-1.58h-1.72ZM184.7,96.89c-.02.37-.16.69-.42.96-.27.26-.59.4-.96.4h-.28v.21h1.72v-1.57h-.06ZM184.7,83.36v15.1h2.63v-15.1h-2.63ZM187.26,83.36v1.58h.07c.01-.38.15-.7.42-.96.26-.27.58-.4.96-.4h.28v-.22h-1.73ZM193.04,97.62h-5.78v.84h6.15l-.37-.84ZM194.34,94.36c-.23.65-.53,1.22-.89,1.72-.36.49-.8.87-1.33,1.14-.54.27-1.17.4-1.9.4l-.78.84h4.04l1.07-4.1h-.21Z"/>
      <path class="cls-4" d="M196.82,83.36l.02.22h.26c.37,0,.7.13.97.4.27.26.41.58.41.96h.06v-1.58h-1.72ZM198.48,96.89c-.01.37-.15.69-.42.96-.27.26-.59.4-.96.4h-.28v.21h1.72v-1.57h-.06ZM198.48,83.36v15.1h2.63v-15.1h-2.63ZM211.57,86.9c-.66-1.14-1.6-2.01-2.81-2.62-1.22-.61-2.64-.92-4.28-.92h-5.2v.82h5.02c1.1,0,2.05.28,2.85.83.81.55,1.43,1.34,1.88,2.34.44,1.01.67,2.19.67,3.56s-.23,2.55-.67,3.56c-.45,1.01-1.07,1.79-1.87,2.34-.8.55-1.75.83-2.86.83h-4.81l.03.82h4.96c1.64,0,3.06-.31,4.28-.93,1.21-.61,2.15-1.49,2.81-2.62.67-1.13,1-2.46,1-4s-.33-2.88-1-4.01Z"/>
    </g>
    <g>
      <path class="cls-4" d="M91.72,75.37s-.03,0-.04,0c0,0,.01,0,.04,0Z"/>
      <path class="cls-4" d="M187.27,75.37s.04,0,.04,0c-.01,0-.03,0-.04,0Z"/>
      <path class="cls-4" d="M188.73,42.14s-10.08-.33-20.48,3.37c-5.13,1.82-15.06,5.99-27.96,15.08,0,0,9.02,7.94,21.75,11.15,0,0-10.9-2.21-22.55-10.52-11.65,8.31-22.55,10.52-22.55,10.52,12.73-3.21,21.75-11.15,21.75-11.15-12.9-9.1-22.83-13.26-27.96-15.08-10.4-3.7-20.48-3.37-20.48-3.37,0,0,7.21-.23,17.4,3.61,15.77,5.94,26.83,15.27,26.83,15.27-17.71,12.67-41.64,14.28-42.77,14.35,15.37-.9,24.47-2.75,32.88-5.38,8.42-2.63,14.9-5.98,14.9-5.98,0,0,6.48,3.35,14.9,5.98,8.41,2.63,17.51,4.49,32.88,5.38-1.13-.07-25.06-1.68-42.77-14.35,0,0,11.06-9.33,26.83-15.27,10.19-3.84,17.4-3.61,17.4-3.61Z"/>
    </g>
  </g>
  <path class="cls-4" d="M612,86.88v64.24H0v-39.14l4.46.11c.54.09,1.1.2,1.69.3,42.45,7.54,201.82,32.42,387.12,18.5,26.97-2.02,51.8-4.96,74.32-8.38,65.44-9.93,111.36-23.95,133.43-31.64,1.76-.61,3.37-1.17,4.82-1.7,2.52-.91,4.57-1.69,6.16-2.3Z"/>
</svg>